<mxfile host="app.diagrams.net" agent="Mozilla/5.0 (Windows NT 10.0; Win64; x64) AppleWebKit/537.36 (KHTML, like Gecko) Chrome/137.0.0.0 Safari/537.36" version="27.1.4">
  <diagram name="Page-1" id="wI1MG8vS6lxAlPnzLBsD">
    <mxGraphModel dx="1491" dy="889" grid="1" gridSize="10" guides="1" tooltips="1" connect="1" arrows="1" fold="1" page="1" pageScale="1" pageWidth="1654" pageHeight="1169" math="0" shadow="0">
      <root>
        <mxCell id="0" />
        <mxCell id="1" parent="0" />
        <mxCell id="FMNDqlk5sN2ux17kd3Ov-10" value="" style="swimlane;startSize=0;" parent="1" vertex="1">
          <mxGeometry x="480" y="79" width="970" height="1081" as="geometry" />
        </mxCell>
        <mxCell id="FMNDqlk5sN2ux17kd3Ov-11" value="&lt;b&gt;Region&lt;/b&gt;" style="points=[[0,0],[0.25,0],[0.5,0],[0.75,0],[1,0],[1,0.25],[1,0.5],[1,0.75],[1,1],[0.75,1],[0.5,1],[0.25,1],[0,1],[0,0.75],[0,0.5],[0,0.25]];outlineConnect=0;gradientColor=none;html=1;whiteSpace=wrap;fontSize=12;fontStyle=0;container=1;pointerEvents=0;collapsible=0;recursiveResize=0;shape=mxgraph.aws4.group;grIcon=mxgraph.aws4.group_region;strokeColor=#00A4A6;fillColor=none;verticalAlign=top;align=left;spacingLeft=30;fontColor=#147EBA;dashed=1;" parent="1" vertex="1">
          <mxGeometry x="560" y="120" width="850" height="1000" as="geometry" />
        </mxCell>
        <mxCell id="FMNDqlk5sN2ux17kd3Ov-14" value="&lt;b&gt;Availability zone&lt;/b&gt;" style="sketch=0;outlineConnect=0;gradientColor=none;html=1;whiteSpace=wrap;fontSize=12;fontStyle=0;shape=mxgraph.aws4.group;grIcon=mxgraph.aws4.group_availability_zone;strokeColor=#545B64;fillColor=none;verticalAlign=top;align=left;spacingLeft=30;fontColor=#545B64;dashed=1;" parent="FMNDqlk5sN2ux17kd3Ov-11" vertex="1">
          <mxGeometry x="110" y="-30" width="450" height="1060" as="geometry" />
        </mxCell>
        <mxCell id="FMNDqlk5sN2ux17kd3Ov-15" value="Public subnet" style="points=[[0,0],[0.25,0],[0.5,0],[0.75,0],[1,0],[1,0.25],[1,0.5],[1,0.75],[1,1],[0.75,1],[0.5,1],[0.25,1],[0,1],[0,0.75],[0,0.5],[0,0.25]];outlineConnect=0;gradientColor=none;html=1;whiteSpace=wrap;fontSize=12;fontStyle=0;container=1;pointerEvents=0;collapsible=0;recursiveResize=0;shape=mxgraph.aws4.group;grIcon=mxgraph.aws4.group_security_group;grStroke=0;strokeColor=#7AA116;fillColor=#F2F6E8;verticalAlign=top;align=left;spacingLeft=30;fontColor=#248814;dashed=0;" parent="FMNDqlk5sN2ux17kd3Ov-11" vertex="1">
          <mxGeometry x="145" y="80" width="375" height="280" as="geometry" />
        </mxCell>
        <mxCell id="FMNDqlk5sN2ux17kd3Ov-16" value="Private subnet" style="points=[[0,0],[0.25,0],[0.5,0],[0.75,0],[1,0],[1,0.25],[1,0.5],[1,0.75],[1,1],[0.75,1],[0.5,1],[0.25,1],[0,1],[0,0.75],[0,0.5],[0,0.25]];outlineConnect=0;gradientColor=none;html=1;whiteSpace=wrap;fontSize=12;fontStyle=0;container=1;pointerEvents=0;collapsible=0;recursiveResize=0;shape=mxgraph.aws4.group;grIcon=mxgraph.aws4.group_security_group;grStroke=0;strokeColor=#00A4A6;fillColor=#E6F6F7;verticalAlign=top;align=left;spacingLeft=30;fontColor=#147EBA;dashed=0;" parent="FMNDqlk5sN2ux17kd3Ov-11" vertex="1">
          <mxGeometry x="150" y="680" width="365" height="280" as="geometry" />
        </mxCell>
        <mxCell id="FMNDqlk5sN2ux17kd3Ov-21" value="" style="shape=image;verticalLabelPosition=bottom;labelBackgroundColor=default;verticalAlign=top;aspect=fixed;imageAspect=0;image=data:image/png,iVBORw0KGgoAAAANSUhEUgAAAXAAAADPCAYAAAGb9bq9AAAAAXNSR0IArs4c6QAAAARnQU1BAACxjwv8YQUAAAAJcEhZcwAAFxEAABcRAcom8z8AAFZ0SURBVHhe7b13jBzHmfdv4IDDAe9fh3uBe3E44HA/v7iTTJGb42zOiRuYg5gpJpEiRVKJpLKsYFuWLVsO90oOZ1u2ZZ8ty0oWc6bIJZdhc44MSy5zWMbnV091PTM1td093bOzS81sfYAHkzpUVz39naefqq7+2nDJntoIOdObIXdWG+TN6YD8+d1QsKgPipacguJl/VDy6ACUPnYByh6/DBPXX4WKp25A5TO3oGrTHRCbuD9kTaoDXvgZ7gsvNnF/yKg4DkEV/skb97fg6WVHAQvf03cTchwUHqHCi03cH9JKDgMWvrt3ENIr6mwLjxQt99W82MT9wVN4CKjw5DYvvdXHC1lTd4O/ImZuIzZxf0jNOwBU+P2HLkPVggYYvHkXmtpuwIL1nfDbjy7wgmPNI3LhxSbuDynZewELj1DNv/Rmt+UJi1DhxSbuD0kZuwELj/CaLz4MG7/ZATG5NTBzeTMklDC/lwr/o99c8LqN2MT9IdGzA9TC950ahJb26zB7eRP85k9n+fdY+BuDdyF/ru+EFZu4PySkbAW58Og2d+8yt2E1Tyds4cwGU7cRm7g/xCduBiy8J2snLzxCJ6xHKnxC0XHImcYKL4UHYhP3h7i4zwEL39l1jRdarnnyeSp8ekUtZE32FV5s4v4QG/0pYOGJ2KTtQwsv1IagwExs4v4QM/6vQIUnt0lM8/d5ufD0J4WFF5u4P0SN+xBMC6+csGaFF5vQhC3vildsSmrOTGb0fg+zk8zwO+ISs0+Mt5z3meHy48QrIm8Lv/97/skAf5N//1/GW+93uL2/M96aUyleZXBlLCi+0sr4ucl4OwQ88H9hhstjAWVoW2rBEdw2/f6PzDYzI/C3FcZbzVeXjeIViWaGLnKdfzLcApsXfZwg93hFmAwuK58bCG7r35jJroPnEfKeeB02WHAZKjiajPr5n5nROWFWcEQu+D+I15AVXHNfyZpcD9nTmiBnZivkPdzOLhK6oGBBDxQuPglFS89A8YqzULLqPJStuQQT116B8ieuQ8XTN6Fy422oeu6e6k6jR2YVhqlK4ec5L7zYzOiTUX4MXBV+tX/hxWZGn/TSI4CFjys4ZsTZAQpfuMLIZFHhxWZGn7SiasDCx+Ye4TWPWBU+f/FpKHnUuHAmtxGbGX1S878EKrzsNsj5i3egqX2Qv8+Y3W3q82Izo09Kzj6gwmeU1fBCppad4K8vfvckLN/Yw98j1bU3wDOz16/wYjOjT3LWHkjJ3c8LPy55P6/5lOKjQ05YhNzGM8tXeLGZ0ScpfSfwwks1n1xwmLtN/rQ6mLy4GdImNfKCk8+XL+vzuo3YzOiTmMqu6EXhxyfthjlLjkNi7iFe0E2vdcCS9W38PZJU0QyDN+/5nbBiM6NPQtIWkAuPNT8hZR/EZh70O2ERP7UR/7BiM6NPXPwXIBc+Po1d1QufV9WGCl80t83rNmIzo09szGeAhX9w3OcQl7QNkjOG+rxaeIRqXmxm9ImJ+hhiYz+D//jPT0SRmC973ca/5i9duSOW8LmN2MzoE/3QR0CFV91maOFr/P6ksPBiM6NP1IN/hoCFt/B5LLzYjCYsoebDhAyB31GyZgp+waCsFV3oInhFj5/ljBaCF77/23g75CIaL5DxQhrB3+h32i5eWNP21HWHgAtgwTHNUIhfKMgZJtwBXvlT2k4+EAS3hdkx3J7ZtvA3vJI3KxR+h1kthK76NV9ZqAnxFbNV/84/Gckd2WUQSvjgKyY90X0oYUQuhD79O2a0PUJ2I3KPYUF+hq9oCL5aFZwKiAVHw4LicrQuFRwLTd8htC3aD4mARoNgBxaPW6Y2GoHX9GYefPEOXBY98h5oFv7yLnQWv2M3Or96WnLKuPxb1m9cvz46wK9h+TiY1ZeMgTxrr/DBPDyH89QNIwn1zC0ji3a/x4PdL7DXkMdbasXPUCu+06/iC9WKX25S8Wvkir/mX/Eb7vM4tvsF76plQS5VfHzhcXGh4SNzWou/x7Or1UAef+XqPbG2D9XjRRHGFrx/nF0WUcXH5h2F7r5BSK80Lk5xOF2wHl+w1EhSFj96nr+qHi+KMLbggxLY5ZxR8Ud4xedOPu71eBzbgshSk80qPnVyCyRVtULK5DbImsUqX/L4tNm9fJ1iyeMr15wfIjWiCGMLHAmC19D+Fe/z+PRyrPxaSCmrhV9+0G+r8Z5pHbyiseJTZ4q+BBuNF0UYW+DwG564UCoeyas66q34lJJjsOkNY/hlfNEJyJrSCBULW6F4bgsklDdBxjQjJ4aQ1OTPN7Ly33r3gmlUI4owtsAxTzxbJFU8okpNcmENnDt/m/9W23gN1r3YCZMWNcOslW3w01/38+8JVePTZnbDT353cYjHiyKMLfhAs3RjgCVV/IQkMdhS8vikvGp49a0ur8ebhZNZU5v4erLUpE8XXm8S1YgijC346L7U7cYIP6Xi0ePXb2yEqtk1kJDzJWx4uZV7fHTmIUgproFJC+qhdDaTmMJjkFZu5E6R5PIGuHv3HsRPbLKNakQRxhZ8SGXSFmNYpVXFY58Gk5qHkvfy8f9WfPcnfUMvoGyuXEURxhY4jhV7AKjiHxz/Nz4UGis+LnUHr8gUReOHRjVGOClLDYWTGMdnThkqNejxoghji9joT4xuF1HxD3zjM+iisecee493UvFpFXV8W4jq8aIIYwscsc37uqI/9at4Z1Lj3OPNcjWiCGOLqG98aHQweive3+PdaLzbihdFGFtMeOBPgL26eH+Cf8UH4fEuNB4rXhRBM9bBDmS1TyqUoKeRmfW5qv27CHXCqXctBIKWx/4y2qebYxuVPmHqbaTC0it9L/dGUq8mgp3adNsHggdGFSUvJ1c4Qh3pCB6gXOFYUQgti2Wh93QLilo+hPYnV7gVuD253AitT6MZ5Eai3x4Trwjtm8rmGHkF7FlFaKfygcUzw4rBg0bD9Whd7FWlmxvMKlyuUFoHh0a8brz1/k6/YSM8I16pDPgbeR+VTy0XIle4XEbkZ8xwn/Qdvqrr441IVB71tz8wo+OkYSWaSIBOH/S6kQK9ZSTvoCGvRVAuZMmhs1L2WDybVNkZdUhysGBk6m1NCMqJqqHyOgS9x4ak31AuaD/0Stui0S60Hr3K8oXr02gY+h2hCqfv5PKZVSw5mdxQmhHmvnu4RqMZQtYUMdcHZvFm4PiTVsid3Q55D3dA3lyj04D31CzsNYZCPHIKipachqJl2E12FkpWnIOSlQNQuuoClK6+KO7bugwT112Fchz88ySOQRmEimeMwT9VG+9A1bN3YdL9vH/xfoKJpGFX+qPBVboowtiCJ5LcVvrik0FU+g3/Sh+rYwszK08Y2Tu7Sp9jX+nFTir9iaGVLoowtsgoPw6OKn0E5EUUYWyRMRHz1L5KV7ly9W4AeRla6YXLzom1fWQvZxWvVLoowtgivawGeKVjxwCrdCK9yuiVGY6mlzJPR3rP3IXspReHaLoowtgirQR7Y0SlM09HqMfdstIDaDpWegmrdKRoxQD0nL4DWUuMQZyyposijC3SirEbzFfpCA7gzJokKn2SC08Xml7MKh0pXGp4ejdW+OLzQzRdFGFswfseiw97Kz0PhyoLTc8Smp5QUutX6RnTWiC5qhWSqtrAM51VvFLpSMFin7xUrB4w/SMVRRhbeAoOGh2+UqWrf6QYvSRP9I0vQXCijZr663zSDeLVH5/z8/RA0YsowtiC97BjpReZV3p8gTG3BoITrdpp+n//+SJkPdwNq17uh/yFgStdFGFswYc2UKVzTzc0PSrTGCN+vP6qX/SCvP/hACzf0AUL1nXBS98/7Z1WBqfayJrdCZNWGrJS23KTVbh1pYsijC34IB6l0tdsaOYV5inxhYwIerqnvA7iimqhaHYTVCxqhezpLZBU2cw9/fm3zkDmLGOwJtf0BcatJwWLzStdFGFskZwlRk6JSo9J288rSZUXJLPC/or0lR+wCp/BJEaKXhKnGJNTm8mLKMLYIjkTR075Kv2F11ohOY95u6LpMj/91WmYtaIFJi1ugXUvdcOJxuv8+4ELtyFjOo6O9Q8ZEbOLI1GEsUVS+i6QKx0HaP7mg5NDNB1BT8d7feLyj0LVgkZe6QWzGiG+pJ57+rPfOclDxtzZ/pWOmEUvoghji6Q0HB/oX+mIB71cChmRNJzmxiRkJHl57Z1TkD4Fp842opd8Fr0gmbOGXhxhpYsijC0SPdtBrfTU3H1w4eItuHPnHkxI3c/lReb9/zkDS9a2wMMrmmDj693Q3G48xuHkmVuQPhmHIrfAnMc7+Xdp0/w1Xa50UYSxRWLKNjCrdPT0cQm74fbte9zTeeUxT08uPAyxOdVQOvMETF7QAGnM22Pzj3FP3/StXkirauDLvvz9U/ZpAKbpoghji4TkreBX6aqmi+gFya1gf6JK7oXkJbH4OH82Qnyx2cXR0D9SrHRRhLEFH/etVrri6VjpHlbp337b0GQzbt68CzHC0512YogijC3iE8Rge1HpadmswkWlp2QZ92vihI5+F0dM0/FBGZ5i89wLIqd2Cx9mFW5S6aIIY4u4+L8Br/Qko9KRuORtkJy+k79PTGPersiLHL2YyQtlGanSu3pvQmI53rPpX+miCGOLOD5xoKh05ulIfJJR8fGpeFuJuaarcfqQSqd8Oqt0XuFlDUM0XRRhbBEb8ynExeJ9PEalE3GJTGIsNF3NvVh6uqj0rr5BSCg1Lo5kTRdFGFvERH0CcqWrXLl823Wlp5b4pwKQ+GL/TgysdFGEsUXMBLxrzb/SZU1PsIle1D9SK0+3SniJIowtosd/BDETPoYYvD/TotIDhYxO5MWs0kURxhbR4/4CRqVbeLoIGR17us0fqVrpoghjC34ncqBKd+DpTv9I5UoXRRhbROGdyGqlBykvATVdDDaiShdF0Gg0mkhmJLVOviPYbD/q7YUy8u2ATpCXt9snQvdmylgtG3Lw3kZ6XCEWBO+HxJnr8bWEGUL3UiJ0IPK9j3RbNs6ULxdcrlC6p1O+bZp+x1n06Tt8RaMKVG8tx9vG6ZF1crnkCpfvr6TfcT18piRC36nHhdunGdTl39RbvXFb6jMAHUGFpBZXX1UvoxtG6XsqhHqvOy0ne/j/xS8Y9Bt+p3o4fkf3R+I+5HslrSZPQHCb8ndmFY7Q/uTvEFyfvqNjIeTfEHVyBlfIc9jjymYVjgdNG8ady3cfq4WUJx5A5AqlZeWHf9LvdNs3LuO0wtVyWVU4rkeVJN9Nra4vH4v6G4HLyBXuCjPvMqtwBH/DUw0Lj+/JEHylwtlVOB4EngH4SuvS72YzPdC+7WarwOWoXHKF4/doNGMFQtvGsqJc4Ku8Pr7H7dOxyL8h+Jl+k2fD0Gg0mq8qsi6SloUK0lREjQxCifw/gtqNyH+q+CcuL0PlkpcZNfBfXf6zwD88DO+o4PjbvzLDP0sqNP4xUkNhI6nrEBRC0h8h/dHSAdMrRlJYDiwDXhsQFC2py+HcVPJygSpT3l+C8ZYzkk7gCCwQViS+omElk9fjAVDBsSLpPaKuo0K/0ToUqlKl0PfyMogaEWHDqZPaIPSeoiTErMIJcgDa1qiCXone+U/MMFbGwuNV3mpmCFU4Fo4qQPZwrDx1HQKXk2N6qhizCqfYlypHnq6JviMPR8wqHKFy0bYx5KSzV70Kve8eHmpUz/qqQQ2v0Wg0Gk3kw3vvpWET3GgWfXww04wWMZs+WpsYCCoGg0oTLHCjp6jId1mgeW/mEvcWLT1j3NSFzxNaflY8U+gcM+P2dP5QJ7xx9zHfHdPc+CPN0K7weQL4M+VwVownrhvTkdDkO0/fNCbgwacqbhBPVsQppzYZ005VjdW5vsYifLSEmDB/pBydPzZo1BwdndzG0dHJx+pUX2MRGhIUGkfvDKzo6ORWjo6P5huuo+M0ag4cXRy+JtLBwYby2LfgHV08iSnUio5TjoYsdDGmsUNHF4eviXSMEbXH+KhaM0fPZk5eubAJHn+hC9a+2C2sB9a+hNYLa1/uhVXP93qfemUauuCzm0Pg6MUrBmDddy/BM29fhmd+cMWwH16FDT+8BhveMWzOc1eg3EGMLg5fE+ngCGb+LCULR49THj6eMakecqahmrsJXUKo6FLoUsoUvYypedHKC6J0BtnLxIR1NjG6OHxNpMOH6fMHhimOzpwcDWdkQXr6bkLqROPmQwTv+uQPfh/NGF1y9FLm6IXLjPlGkcIV56H3tDGvHc49GihGF4eviXT4XVd0P4qJo8fmGTd6dvcOQnq5cYctzc+KOHd0kxjdLnTBmYtNHL14+RkoWOJ70nbRsnPM2Qf4PK847SiS9YiYenS1dYwuDl8T6fC73PDRj9zJhzp6bI4x5dPpMzfBM1G6EUt1dApdZEfnzh660CV/0SmxN2BOjpMY+xS9aPk5OHXOeEZ05iIxAabNxag4fE2kQ7dy8jsLbRzdKkbH2UGKZjbwxy1nTZGyLszZ+aQVzMlffOsk7Dl4BfoHbnMHNOPswB3Yc/gavPzDc9zRPTN8kxWRoufO74PKlaeh2EWMbuXo4vA1kQ7eOivfsxxI0QNlXXBy1tYOY165e/cAvvfuacib2QzxpQ2QUtnIJ/bLnNYC2TNambVBFrNMZp4pbXxC7sL5nfD2Lwf4ukh7zy3InmM4upsYPVAeXRy+JtLh00+IJ1WbO7p5jJ5WehQ8zPYdusQdcc2z7dzJU8t8Uz//4vf9kFpRD4mldZA5mSm7bejSBjmz2iFlchtkzGjnc3ETWQ93Qeo0Y0pR5GjDIBQ90gd5C4N3dHH4mkiHz7FCEyHYOrqh6FPm++LuXfsvQlzuEUhDZReKnlpqpBWfeqULsifXwXvv90P/uVv8OydgGPPzP57n07Zu+I7x7IqsWSJOZ6FL3vweSJ3eBZv3XeO/IctfPCum6LZxdKXDSBy+JtLhM31ki8mEcpiTWzh64WRjQucbN+7CuNQDlqELTvaMbHq9yy90se0ZtbgYff4tw8EzZ1pcjC7sgaSp3TAgHnsx7+kzjhVdHL4m0jGms9ljTGlj4eiFVcbTJ557lcXKAS5Gk4t888d9+PkAeMrwMSHHeMYlkKNnMUsqb4KMqS3wl82+EAVj9EBZl/VvGI+FmotO7iBGF4eviXRwzqakDObkFo6OMfpTzzVx50krDHQxWgPJhYbSP/Myi6eLj8I7PzsJZwechyj4DIWf/uYsvxjd8K2T/LuMaUzVKb2ITm7SYZQ9x3iwxfd+ccH2YtR47mW/dvCxAp+YLN2YnMzK0ePT98KZfuO5QMm5B5iTW1yMMkdPyjfy5hu/2e4XulhlXewUHZ9fgaQzRbfLo6dNN6b0vnb9LmTOovDFfgiAOHxNpIOz7yV6dhgz8Nk4Oj6CwpNnPE4IeeVbbTAhlX2nOHpSnu/RFFt2nofM8hqIzjpsPO/JztEn1UN6VR2fDhc7jLbsNrIzCD3CQo7RUya3wqY3fR0/FUuZY5uELlY9o+LwNZEOn2IyFZ3cmaOjoken7oEnNhqP8SBefI3F58zJE3KMR4E8/WIrxGUfglff6oKePkP9ndB36iZ8+8cnIbmsDja8bjzELG1SI2RMaYJ3funrokde+9EZSJnUOkTRzWJ0n6MboYs4fE2kY8wYLOZSJUdPc+boFKPHpO3zXpAmZBuPXln/bLNpjO60wwjDlidfMeJqfCYOhi7pkxshpaKRqbnNEACLGF12dAxbxOFrIh0+LXbSFjE1tuLoDhWdm8i64GNuKmb6Min4VK0P/nwa5iyrg+SCaojJOgRRGYdgArdqHr7E5R2B1NJjMG9VM3zw0Vm+DjF1STNky0MApBh9OMN0xeFrIh2a+53Pih2Eo6OTZxfvhwR2IcqdXEovosVlHoAoz34onVYDG15uhf/+/SnYuus8fHn4Ehxktm33BfjVB2dg46sdUD6nDmJzayCx6Jiponsq6qD4Yabg6qCuIBxdHL4m0sFp3+PimZOToyuK/uB444E2J0/dgLgUMR08c/Rk5ujxqbv4b0hCxh5IzRGKbuLo9ulFXx7dblCX3TDdrKlNcOqMkY5MrBAPsrRxdHH4mkiHP9sgTjzfQHZ0oegPPmQ8QKiz6xrEJW1jDr4dYpO38++QBA9zdlRzs9DFztFNO4wCx+hW49FxrAs+dgtJnIhxun2MLg5fE+ngAzxiYz4zHuIhHF1W9Ae+8Rl3mq7uaxAVazwPDsGH8CXJF6PpzmJ0a0U38uiOFV1xdE9FPXT3GQ6eUGoM07ULXcThayId/mgg8aSaWHy4oeLoDzz4KXcaIjaBhS8sdOHPanJ7MRrq0KXSiNFlR0cSSowH49rF6OLwNZGO8fyrj41nYEWjmvs7ejxz9PyCHbB8RTUsf/QwtxUrjxi2Cq0GHll2BBLQ2Z2mF12HLoaj4xDdR59qgcefbWPWzm3tcx3wONrzHbD2hU6oWuQs6yIOXxPp8OeNjWdOjo80REdHNTdxdKsYnS5GQ67oQd5hZIQv9kMA0NHF4WsiHf5QvYc+Mh6sxx1dVnQRutjE6GrWxdLRQxGjc2cPjaOLw9dEOvjkSO/TIwM5ukmMbuXowXUYGT2jIYvRbRxdHL4m0uGPR33wz9zJAzu6eegSckcfhdBFHL5Go9FoNBqNRqPRfOXAB63hQ83C8cIFH7AmP8GOwGNy8hxKq/VV5OcJjwb4sDh6Qh9hVVZ8Sp/8gGkr3BwDLkcPpwtr8Kl8VGlYgWoFYOXRwdIz59XP9HRBXJae8U6/qY2E4PfUINiQ2423X/s6M3V7VvsizBr935jhsvS4R2pYerw7Oj890E5eH+uC9ofgszjpN9U5ZAcM9hjs6suNgyNUNjfHYLd/fE/bcVNufI9PlERKmVE927XBiII7VU3eMR6M7FT4Wa54bAhyJKpc2eg3RD0osxMKt0HLqPuW90WojU4VqZZRLhMZbltdHx1CXQ6xcvDhHINdfdH2ZawcXC2b02Ow2z++p5MEkY/Jbj3aBxmdCHZtMGLgDtRKRLAw9BxWpw5OB4aP20eokvE3MycgcH1Sv3hm8kEH4+AELkshCu2flAWfV0vlkdfHZ9HSOqRMtJyVgyPBHINdfSHy9gmzY8Xn3OJ65IxOjyHQ/mk9VcGdrDfHeOutC8SuDTQajUaj0Wg07qCYTDazmHg4mMWjwyWamZpaw/gVyy9fXIULFOOaGR2P1TJqOpXiY9lKmBFYT/J1RUSjXnSagSfBJ8ywouiqGiEnw23gRRr+LkMXaKqDYzYGl32ff/JhtR+VSmZ0EU1gWTBLQCesDGUQ6KJpDzNE/UzgRRmVQy4jnUCy0XHJZV+AXwho33QxSRezKmYXoAgdF2K1DDk+gvtzIlDYJmPGyRFsbGogueGwUdXMB/6OqiJXPiKrKjqxWUaBGkLFbj8q6vdyAyNqI5t9lpdX15cx+039Dsuu/pvg71hGdd9W+6LvVaO8M4LLWDkvLquynhltRz2xsFxy20UsZhWD0PdmjUegQ6t/j7g8Vp78vZ2DO9mPCq4jOzh+VtUITzAqg9qYdk6H5ZD/HXBZucz4Xj0RAzm4vG87B1edF+tXXtbKwfEfjY4Vj1v9d0Pwe7mMarkiGvxL/gMzrEysQMqREvLf7+v4hcDMwRG1EaxCFHlbiNV+VHC/1Ii4basTA0Mk/M2NgyM/YyaXAd+js+KralSOQCEK4cbBEQq5sP5oXdms6klWb7Nl1Py+5iuGHA5p3IH/ONq5NRqNRqPRaDQaTeThnUaB5gyZ1gTZ02lyHJwBqgVyabqz2coEljhL61zfdMT586UnKYhJ5o1HhpyEIv7YEHw2Dj0ICp92xmwFPvEMH+vHDJ9fuRIf1MoMn0jMrIwev/34ZfGc+Sswcd1VbuXrr0H5E9eh/Em0G1DxFLOnB5ndhMpnmG24xew2VG68DVWb7jC7C1XP3oVJz92DSc8DZjc0kY53GgXVyb0zQA3DyReFwMnRwYfr5MzBzZxcVIEmkslEB7dy8oBKLs23PaJKPjJOLqpAE8nwCXFG2sntlNz7cNZhKPn64MIVUQWaSMY769MoO7nxKL8QKnkQTi6qQBPJcAcP2snRwZmpjweRnLwg1E4eQiUXVaCJZPjcfRUj6+QhD1eYknNHdxyTo4MPdXJRBZpIhk9SOWwnl8MVZujkc5xfeFoq+XI7Jxdqbuvk5OjmSi6qQBPJZEzEWVhdOjkzR07uIrsSXEzuJE/OzCJcEVWgiWTScarhAE6eWl4Hj7/QBWu5dcPaF3tg7UvCXu7llo8OPkwnd5JCLF01AE+/fRmeQfvBFWZX4ZkfXoUN71zzWtFjduGKz8lFFWgiGZxPO5CTr3uhUzzayZqiecy5Q5BdCeTkFasHxB6tefYn1wLE5IaTiyrQRDLGcyntnXzNcz4H37bnElP0em+4khOKFGIQSi6HK/nLL8DOw8bjA5GNP7rmH65YZFdEFWgiGf5kBCsnRwdntua5Du442/dd4q/b9vo7ue2FZyiyKzZOnrd0AHYJ595dYzzlmBw8kJOLKtBEMt7Hf9g4+Zpn27njJJed8Do5vgZ2clTxkXPy3CXnvMq9p+Ym5C27wN9vfOeqozy5qAJNJOP31DILJ1+zyXBwDFeSS5mTMwVHQuXkdp1Bfk4u5clzF/fDzupBXo49RwYhd6kRriAb2EWnkzy5qAJNJCM/zCmdOzo6OTPJyVeTg4uY3L2Ti3BlSJ6cWRAxee7CM17n3o3OzZScYnJkww+vOMqTiyrQRDLqE8vMnHz1xjbuOBSTB3RyZs6d3CJcsXDynIWnmHPf4PtF585hSu6NyR81MiwbfnDZUWeQqAJNJGP2WD41XMHHZiNqdiW5rNbr5Dv2XQ7OyV1kV7Lnn4Rdh4RzH77BnJ2FLMqFJ7Lph8zBHfR4iirQRDJWz570KflR5tRHIW/yCdMUouzkL36317ZbP2t6K6RNaYGUSS2QVNXKLXlyG6RObYeMGZ2QM8fEyaWY/JWfGCEIOnf2AqboJheelWsGoGzV0LErZj2eogo0kYynwPoBq7bZFcXJX/hOD6RX1vl162dOaYL40nqYu6YDfvWnAWhovQE3b97jTqpy89Y9aGy/Cb/5y0VY8PRJSJ7aBXnz/JU8b4Hh5KjkZheeVnlyr4orTi6qQBPJGE8QtnJydHAbJ5dicnnsCjp4WmU91DZdF+7r48bgPejuuwUnGm/Akdrr/BU/4/cq9a03IXtON3PuoeFKKIbaiirQRDL0qOygnVzp1kcnL57dKFwU4NCxq7BwXQcklTdAQilz/EnNkDG1mYUvrZA9g9nMNsia0QYZ09ohaZIRrjzyzEmoPmHE2kjlcsPBg+0MUp2cYnJRBZpIhju4lZMXO3PyhIJjkFVlOHkGC1Pqmq5xx3ww8zhTdOuY3C9PrnTr587phKgy4+K2oe0mj8vzFvTC9MdPQfos5ujDdHJUclEFmkgmJXc/pObaOLnphScz5uQxOUfgqZc74O5dI7yIL2COX1kLDS1GaHLh4m2Y81gbxBXVgqeyAbKmKk7OTM6u5Mxqh8zp7ZBY1Qbzn+yDC5fu8O00ddyE3Hnd8K3/5xto9c0fD0DqTObozMGDHU8uqkATyaTk7APu5HZKrjh5cuERWLDKF4Yg336nlzn9CaboJ7wOLnPpyh3YsucSvP2zM7Du5R5YtL4L5q/tgkVPdsH6V/rgB784C1v3XWHL3RVr+EAHz2MOnvVwN7z+X/6jCde/cc646AzCyUUVaCKZlGzm4C6cfEL6QTh64opwL4Cl65ohlik5hSvp5T4H/3pKDax4uh2qWRzuhsPs4nPVC33wYEEL/9zUzhwcc+UihZg2owse2XSa/4a099yClBm9rsMVUQWaSCY5ey84dfIJngNw44ahsB9+epY5e/WQmDy9/Dg0NBsOHpN/jF94ZlbVQVJpLcQU1vLOoLwZTVA6rwWqFrdC2fxWyJ/dCp7JzZBQ1gSpk1jowuNydtFZ1cq3gw6OMbnaGZQ6vRt+/ZGRg7/HoqSUmX2unFxUgSaSSc7aA0Oc3CQmj8/6EvpOGeM/1m5sgdQi8zx5OjOvg+cdHZJCdHOPZ2IlOfgg5Dxs3uOZzy48l79whi93+epdyJjj3MlFFWgimeRM5uBmTq4o+SOr6rgT/eTnvUzNrbMr6WXo4EYW5QHPEdM8uVMnH1/UxLeDCp6DGRabbv1vvWv0cj7/g4Gh2RWLziBRBZpIJjlzNwRy8oSsA3D+vHEzwUMp+5ULT38n9zAjB791+x4sXtsKMblHIaWMXYCyUMXOybOnNUM6C1XiyxphydPdcOuWkZ3hCo5pRJuxKxiuINgjmjW3jzt5oM4gUQWaSCYpYxdzcHsnH5+0hzvPsROXISWPKbpNnjyNGTm4zMCF2/Dx5vPwyvd64ZF1bTD5kWaoXNgMU5a0wCNPdMArb5+Ej7dchHPnb4s1fKCDZ8/yz5PLTo7jydHR9x4xQqPk6T2OejxFFWgimaT0XRDIySckGw7e1nEdkll87rvwRAf3d/K0Ep+Dfz3+EMxb2QT7Dl3mn53yZc1VWPxkFzyQ3cA/Gw7OLjxtbprIndcDR+uNa4QUpuaWPZ5SuCKqQBPJJKXtBK+TZ5g7eWLWfmhqNlJ9Dybu9V54muXJ04qPQIPoyYzKOmxkVtiFZ3z+UYhloYqn7DiUPtwAU5c0w5yVLTBtaQtMnN/Mwpd6iC+ug8SJDZDFQhaMyTGrgjS1MQfHuNxmPHnCJOO+0f6BO5Az14jLA41dEVWgiWSS0naAn5NbKHlu2UHuQBimxGWwONzCyT3M6snBM6v9UohWY1esJhfCsSsIOnjODF92RR1Pnj2rE3YdMvY5e91J31DbAE4uqkATySR60MEVJzdR8mRmf/6r0bnyxbZzMCF1n6mTe4p8Dv4fCV8OyZO7cfJxOUbmBh08a7r5TROeqe3wx8+NXPg+FoMbY8p92RXVyeVwRVSBJpJJTN0OTp08JnUP7NprdJXjOJNYpuRGGtHn5J7Caq+DI48908KVPLGAxegOnDylvA7iCnEuFiMrgjS13eAOrubJkye1wumzxkVpbfMgeKZ1mKYQrUYhiirQRDKJqdvA0slNwpX49L3w4mtGFzry18/7IdrDFD7XyK6kMKtvGto1f2PwLuzafxHe/FEvrN7YCvNWNcGsZU3stRlWP9sBb/7kJOzcfwmui55SGe7g04w8OTp6Unkz/M/nF8WvAD/+9QCkT2eKbpMnN1NyUQWaSCYhBR3cnZNjTB7N1Ly+0TcmpaXtGsRlHoDUAp+D/38x+2Dy/BOwZcd5b047ELdv3+O3wM1Y0QoPpB/n33EHn8pOiJUdUNfsGyfe2XsTMqYzNbfJrtgpuagCTSSTkLwVgnXyxCwjjbhr73kA5r9xmRiyHPQ6+IS0A94Lz4TcaojKqIb4vMOQM+kYVM6tgykL66Fyfj3kT62FxKJjfOxKUimGLUa4gsNsEXTwTObgS54yppA7eOwaH7+SOZWFLMOYXEhUgSaS4Q5u5eTp5k6eIjk5OnhKzgGIStnL43G0BuHgD6XuZw4+tDPI9MIT43ElJo8tOMG309zOHHyKceGZWIZpRIubJmyc3GxyIVEFmkgmPmkLc3A0B0pukSfnPZ7SAK2f/6aPO+Yv3z/Ju/YxbKE8udXkQvKFZzp7jc47Bv/9h7N8O7/6n7OOB2gNzZMzs4jJRRVoIpn4xM3AnZw7evDhCnXro0Wn7YPjdb74HEOW515tg+KpxyAu+xBEZxyCCenMWMgyIbOa3xmUkF8DpbPr4PlvdXtHIyJ1jdchsaTWNE/u3MnNwxVRBZpIJj7hCxiOk6vhCjl5YvYBKJp0GI4cc9dNT9TUXoWJcxrAU86c2yJP7tjJLWJyUQWaSIY7+DCdPDZ1N2x4oRESM5mzS06O4QoOzhqfuo+HKYtX18NbP+qGjz47C/sOXoRDNZfZ6yX46PNz8L2f9sLSdS08Vx6Ti+HL0Jgc5115/ju9wc2FaOLkogo0kUxc/N8MB7dx8iTPdkjLZo5t4uQxKbtg8zYjVt70UtMQJTc6gsx7PDG7Ylx8Wlx4Kp1Bz3/H6PzZwedCrDN18sK5rZCHDu7n5BiqDHVyUQWaSCYu7nMI5OSPPnaUO5aq5NFJO2Dz1n7+27ad5yCGKblZuGLl5G6zK3yaOObcyHZ1LkTh5MiTr/b5K7lFdkVUgSaS4Q5u4uReB2e2fGUNd5xEpuTk5NEJ233OveMsRCczRbe58ByWk0tKzifh32v0YmKHkDrhJ7L+ld6h4YqJk4sq0EQysbGfGQ5u4+TLHz3CHYdi8qj4bcy5jfsgt24/C1FMyZ1kV0yd3GmeXHbyUuupm5H1LzMH94vJMVQZGq6IKtBEMrExn4Kdk2O4snzFYe44GK5ExW2BzVvIufu5kjtKIQY5uZC9kwsll5wcwXlXvBeezKwuPEUVaCKZ2Gjm4AGcfJlw8Akxm33Ova0fJsSxC1Cb7Epw4YpLJ98jKfnEev5+3Us9jrIrogo0kUxs9Cfg5+SxQ5182fJq7jibN/ucOyp2i3UK0a7H06mTO47JffOT0+u6l7qHZFfMnFxUgSaSiYlCB1ecXFFycnBk85bTMD6ahS4u8uTDV/KhTo5TxPmUvBa27vENn133InNw6cLTyslFFWgimZgJH0MgJ1/xqBGi2JGewxzbjZM7jckVJc+bbAyhtWP9y8zBHYxdEVWgiWRiJvwVAjn5+AmfsQvNasOYsy9feQRWkK2qgUcfq4Fk5twjo+To4D4nzyg/Co9vauPPDXr82XZ4/LkOw55H64S1zLATyGzeFdXJRRVoIpno8ejggZ3cLLtCeXI33fqhcPIhMTmGKiJcsbvHU3VyUQWaSCb6oY/A2sk/s3VyuTPI1MktxpO7cvJhjCcP5OSiCjSRTPRDfwFLJ0cVv+9Ojg5u4+To4CbZFSdOLqpAE8lEj0MHN3Pyj92FK+TogcKVUKQQvdkVZqqSu3ByUQWaSCbqGx+CtZPL4UoInTwU2RWvk5uEKw6dXFSBJpKJevDP4NrJTTqDQqrko+Tkogo0kQx3cNnJuaMP08lDcY+n03DF7sIzgJOLKtBEMhMe+JPh4MEo+VciXEEHD87JRRVoIpkJ//k/MGJOjg4+XCd3pOQBnBwd3MTJRRVoNBqNRqPRaDQajUaj0Wg0Go0mMO8yw7zqP/BP4UUTMyy7apuZOQHXH2e8tSWZWaHx9mt/z+y68XZEsNq+1bE6bTf5GOyIZua0/sICrKRKZu/xT+GFlYM6bXinDo4i4MQ5QoGdg6tl/RdmeKxOcHoMEeXgeDCXmP0dM7WisPLwt3hm+NseZoj6mfhnZp8ww9/exy8E9A8hGzUU7pfWWYBfCGjfU5jhb9uZmWHn4P9ovOXQdtBxZMdX13+GGS6HlolfMPDkp+9WMFMdMNhjsKovNw6O4Pey4zo5BsRq/+TgVO7XmclYrYfQOmi0b8KqDUaUk8yo0tSKInV4hX/yOar8GRsQoWWp4L9jZtZIWHm4HIINie+pInAddXuP8U/+v8mYNTo1MIHlJOfCxsHfyPnl9bEu6NhoOfpNVj/ZAYM9Brv6cuvgeLz07+v0GOz2T21E23FablyP3pNgUj3btcGIQY1DYOHlijX7LC+vri9j9pv6HR40qQmBv2Plqfu22hc2On4vm6wqZv9MpFCIldMg+Bs5hJWDh+IYEPk3efsyVmW1Cy+tjkFF3j/WjyomdEwq8nr0L/F/+CcfgdpgxJD/ymSjMwsbSD7QQA2GZ7O6LRn8LJ+1cuUTqEC4jLpvdV+E2ujYiGZlVI22La+P+1SXC+TgwzkGq/qSty+jHishn2ROjwGx2r+Z89ExIXbtvJqZ/D2eFIHaYMTAncgOh6DT08GpDYSfrRwcK09WEapoAt+rjiA3DIHLkfoF4+AILkdlMVMPGVqflpNVChvVzDlkBwz2GOzqS96+jJWD0/7cHIPd/u0U3G49FfKlQG0wIuBBmFWi3AhqA+FnOwenE4NiLPoNG0auFILWt4pfg3VwWpYaGpehclNlU0OrDv7vzBBSKdkhyJFx+7S9YI/Brr7k7cuox/qvzNCBaTtujsFu/+gb+N7s2sFuPQxRsNxU71g22p9dG4wIuENVeQgqmBsHR37GDD/TVTe+x4PFV9VkhbXLQBDqvgi10QlsCLms8hU8OQAir0/ZIVoGG0x1HvysOmCwx2BVX3YOjsuQYRbr/zKTcXoMiNX+KUShOqOLTcJqPQRz7fgZrQS/kLBqA41Go9FoNBqNRqPRaDQaTdij9lyZpYeGg1XKbLhgOWXUFFq4oaYQyeTjsVqGUnwI1YNsakpUTn1GNFa5afxOrrSvGpgbVjsZaMCS2fGEA1b9AXJbmC2DuXr5mHEZs7qRTxTsYzDbV8ShdvxYYTVMEr+jXjPsKJErljpJVAXH3jPsiMJ11M4Cp8MxcRkV/A6HLci9fQTuD3+jnkG51xI/q/9Y8hgfWjaQMlLZsfNGLjvu+38zo44k2p6KnYPTcAyrZWSnxv0Fcl5skzGj4uRs2DAJ+IUCOozVMEl8T8qgVho1huzg9I+Bjk3bImew24+MesIg8olK+5ChY8R9yd3T8mfaFy5rNVxVBr+Xu7Gp7F9npm7Pal8yZs5LJxph5eD074WQoqNtZCafbDLydscE65lRxVBjkWrJUDcwgr/JjSUvS+9lh8SGMBteEGg/MnLXNSErGKKqmNlneXl1fRmz3/A7eaiCWna5jOq+rfaF3+N2ZFNvRsBlzBwc96eOFcIuf/rXQFPXw3KZnWhjAnIAUkPVSKnxvawQWNFYkfhKjiw7uFXjBtqPjFljBlpXbUw7p5MVkEwuM56k8rbN/jEoPEPUfds5uFwmdSwOYuXgZmGZDB2TjFoHEYn81yZDSmumTjL4m+zguDxuDyuPvrdTcNp/oP3IyOqI4GezE0Eum1MHp3LIx4TLkkPS9YaMEwUPxsER3K7cPlYOLpdZLQuhfq+WK2LBA8e/QqogulgisFLJQakxqYHwvewMCFacqnC0PqmdHINTJdvtR0beHoLLmTU6bo+cQ21M/Gzn4HTxKw9XNVNqAtensI5GA9L+huPgtE+qY3UZdbgtgqKB69AoxX9ihsuoQmZ1LBGJHH+rN6giVsMk8TvVwVG95EZQHRIdGysc17XLoqi/yeAyiJ3TyX/LqpPhZzMHR6yGq+Irfq8aYZdFCdbBETlUwWXkfZsNt0Wwjv/ADJcxq0s5hNJ8BUFns4s5NfbgSSOfdJqvIKhOGvdgGKbVW6PRaDQajUaj0Wg0Go1Go9FoNBqNJlj447zJpjR4n1+fPbXRZ9OaDJveBDnTmw2bgdZi2Ey0VshFm4XWZthstHbIfbgd8rh1GDYHrRPy5hqWP7cL8udJNr9bWA8ULJBsYa9hi3qhcFGfYYtP+uwRtFNQhLYE7bRhS9HOGLbsDBQv6zdsOdpZKF5Bdg5KHiUbgJKVZOehZNV5KOV2AUofI7sIpasvQhnamks+e/yy1yauRbti2Lqrhq03rHz9NSh/Au26YU+i3eBW8RTZIFQ8jXbTsGduQiW3W1C5QdjG216r2nRHsrtQ9ayw5+7BJGGi6TUaTbjDH1cvHlk/qkLORdyZkBeEWsiZiHuFnIu4cyE3RNxcyLmYuxFyNBTxgELOBNyJkG+wEHIScSHkouk1Gk24k1lVC5kk4iMm5ELMuZAbYm4IubmY56tiHigi52JOQi6JebARuVfMmYB7xdxfyM0jcmYk5KvdCrmIyC3EvEIWcy7kQswDCflGSchFRC6aXqPRhDtcwMmCFXJm7oWcReQBhVwScbdCLkflo55akYTcdURuIuRcxEMn5KLpNRpNuJNZeQK4hVrIuZgPU8gDpFa+SkJunloJlZAz8VaF3E2OXBFy0fQajSbcyag4DpkVQsRDJeRBpVZGQMgXjb6Qh7SzEy2QkA+JyAMLuWh6jUYT7mSUHwcU8REX8qAicibe9zMiZyIe0oiconG3Qs5EPJQRuWh6jUYT7mSUHwPDJCEnEb/fQi5H46Mg5FzMRyMiD1bI0SyF3PnwQ9H0Go0m3MmYeBQyJpKIK0LuJiKfUg+pFXWQUCJZab1hZQ3cEtEmojVCYjlak9eSKpohpbLZhZAbIh6UkI/yOPKsxQOQyQxfsxafh6xHhC254LXspRd9tuyS13KWX4Kix1DEQyfkouk1Gk24k152FNK5iAcv5J6JtVC5oAm6+27CcLhy9Q4Uz2uDzGktPhG3Sq1QNH4/xpHLQs5F3FzIC5edg4o15+HKtXviCIOjr/8uPPzcFUPIrVIrLsaRi6bXaDThTnpZDRgWvJDHFR6Hx5/rFHLjT8/Jm9DaOQg9TNxR4O3sWP11KJzTygS82Sa1Yoi5IeTmYs7HkZsI+ailVoSYFy49B+WPDcDx5lvQc/oO9Jzxt16v3eXW0cfeM7E2Y+OPrvGI3NXwQ0nM5c5O0fQajSbcSS89AumlJOLBCXlcwTFY81yHkJqhbN1zCTwV9ZBcVgeZkxuYNRo2pREypjRB5tRGyJraxAzz4y5y5AGFXBJxh0LuE/GhQu46tUJCziLxouVkA1C0guw8FK88DzlLBiB/+XnYXm19BUMC7i5HLoSci7hPyEXTazSacCetBAWcTBJxF0Iel38U1jzrE/DWzhuQXlkHW3dfFN8YbN93CdIn1UNqeT3kTAthZ6eVkMupFVnMhxmRDytHLtIrpY8OQB6L0AuZoO867C/cuw7fgqKVF6Ct9474Rgj4UtHpOazOzutawDWaSCGt5DAYxgTcK+YOhFyIOJoh4O1CagC6ewcha1ItJBSfgPSKWtix95L4xYALeZWNkDPziXiIhdxNRC7nyEMk5CXMch8xovJdhwdFjRjsqbkJRY8aEXnZqgvQc9qXTtnwzlXe2RmKUSui6TUaTbiTVszEG00WcjcRORPw2LwaWL3JX8AxtZLOIvQs9ppchkJeBzuYcMuMfETOxDsUQh6CiLyEiXju4n4oWHIWdqrCfWSQp1fylrDIfJWRWsHhh5g3Jzb88ApkPWIMQeTDD4cx14poeo1GE+6kFVUDNz8hP+JKyGNzj8DqjW1CaoSAVzLRLvd1dhpCjqLOInIzIaeInETcSsiDishDJORB3NlZzEQ8e+FpyH/kNOw8pEbcgywSPws5LCIvlYYfYn4chx92DxHw8yG5IUg0vUajCXc8RYcAbThCbibgGJmnTTzu19nJhXySiMgrWUSuplbY57ATchJxScjRipmQZy84BfmLUbiviyM0wIi7cAmLyBdhZK7kyJmIYzSOQu4n4D+4zMeRh+IWfdH0Go0m3PEUMgFHk4W82J2Qx+YehhVPtsDZc7egn9mx2qtcwD0YobNXr4irQl5q5MhRuGV27LsMRbMbuZh7RTwoIWcCLgu5nB/3Crkh4nZC7nYced7Ck1DxKBPu6hviiAx2H74BBSwSx4i8mHLkPD/uy5GjYX4chfx4yy04d+EutyfeusQFPBR3doqm12g04Y6n4CBwIyHnYk7RuJ2QMwGXhDyt9CikFNdAakkNeNh7b448wDhyb0QupVb++w9nIa3CGHLo5Bb9zKnNkFrVBAl4h+dEvKuTfc9EvPKRdpj1WCcseboH1r3SB5vePAUv/+AMvPbjfnjjp/3wOnt95Yf98Ox3T8P6V0/Dko19MPvxXpi0vIcLuGdaB6RM6YDkqZ2QPrMLcuc6E/KCRSchd34f/PqjK/x49jDhzl/MIvL5LDLn+XGRI+cibi3kBUzIUczRikVaxfYWfYcPlhBNr9Fowp3U/C+ZgKOZCbmcWhkq5kNHrRhi7nT4oSrkHibiCUX4ncVcK1NxDHkDxBczcWefH3uuG37/1/PQ3DEIgzeHd7djIHD7LV034Q+fX4a1r56BvHk9kDKti796hZyLOQl5HxfytNl9PCLH3DjPk7sZteIVcxaRi/SKo7lW5KjcRMhF02s0mnAHBZzMlZBzEbcScv8cuRsh56bMtZI9pR6SSmuhYmEz7Ks2olqVu3cBOntvwvZ9l+Hd356DF986CSuf7YEZKztg4qI2KJrbBvmzWyFnRitkTW+FTGZZ7H3OLPb9nHYoWdABFUs6YdbqHlj1wkl46Qf98O4HF2D7gavQ2XeLb9+MA0evw9TH+iB9VjcTbhMhF1E5NylH7nb4oVfIpc5Op0KujloRTa/RaMKd1LwDwM21kDPxDrGQZ7DXNGnkCgo5WnzhCfj1H88KyTTYsvsSLF7fDqkVDRBXVAfJE+shY7JxRyemV4bX2Sny5HM6IJe9Zs/uBM/0Dkia1AEZMzph6aaTsHX/VVESg99+fJkt0wX5UmolfXYPZM81yZMPYxx5cBG5lFphQi6aXqPRhDupufsNAQ+lkHMRDyzkaey7mJwaSCw6CgvXtMCfPjkH+6svQ+6UWq+QZ1TWQurEWmhs9Y3k2HPwMpTPb4LoghPe2/PtcuQ+MXcr5HJnZwfkPNwJaUzIE6vaYfKKHth7+JooEUBz503IftgYuZI9pxuqVvTBxct34fzFO/DRtquw+ptnIWdeL6TO7IW8BfdJyIWIi6bXaDThTgoTcDQu5LkuhJyJuLWQW49aic05DIkFR+Cpl9rhWJ1/FEt88NFZiM0/KqJyJuBlJ6ChxX8oHnHr1j2oqbsG/+83/bD2hS6YtLiFReGNPCKPLaqH+BJjOtukcvYds5TKRt7hSZZS1ey1pMpmSKxogfjyZkidzESdCfmUFV2w/pun4L3fn4ejDTf4/sxo6rgJWQ93Qe68bkib0QXf+8V5GGDibUZb9y14/b8uQP7Ck+CZxaJ1LubDFHIXqRXR9BqNJtxJydkH3GQhdxOROxDyuGz2O3t979en4KZJZ+POfRfhsQ1tkFp6FKKyayCl5BhkYmpFpFVSS49DQ7NPwL/94z54450+aG7zH6bnlLusCHfu3OOvwdDCou033z0Lb753TnwjBHw2Dkf0DT/Mmt3NOzrxddVLZ+CLPVfhNtuvyodbrsLEFSchbVbfqAi5aHqNRhPupGTvhZRsIeLcQiDkoqNzvOcgrFjfBGcHbgmpMujsvgFPv9QG8XlHICabCT2LzIfkyEV+PL38+BAB3/RGN8TkH4M0Fp0nFp+AuILjkFJWBxPnNcGSJ9rhxTd74b3f9sNfN1+AvQevQG3TdejsGYQz527zlMbFS3fg0hX2evkO/9zPvscO0LrmG7C3+ip8vPUS/OyDAXj57dOwbGMvVC7pgLSprZBY2coj8+yZ7ZBU1QbPf++MKBET8HYm4LOEgCvjyOmGIHxNm9kNnhk9sO71fmhk68hcv3EPXnznPKTM7GNR+cgJuWh6jUYT7iRnoYCTDRVyLuYuhDyNifiEtAOwaFU9XLvmSyHcunUXXn2rE6IyDkFiXjVkYErFQWdn+kQmziwi9xPw17u4gFuNWpGHH/Lpayc1QAazdLSqBkib1AhpVczYa8bkJjGlbTNkTWuG7OmUJ5dz5G3+OfKHUcBb4fm3/AU8c1YH5MxxeEPQwh7ImdsDSVO74dnvn4PLV33DXO6xIP25twd4vtw2Imci7hVyLuLOhFw0vUajCXeSs/aAYXsh2VTImZGQB8iRp+YfhKi0/fDJ33wjRjBV8eTzLTAu5YCUWjHSK07GkaczSyk+ygTc12H4zDc7ISbXyJF7RTyAkDu5IcjNqJXEyhbY+J3TokRCwFlknsM7PenOTkXMlYichBxHrKCQP/rSGbh63Sfk1bWDkD23D/IXBZkj94o5E3CvmGsB12gihuTM3ZCcSSLuUMhNIvKUvC8hyrMPPv3CJ94NTVchmYl6Ut5BKUcu8uQOhRxfU4r8BbynbxCWrGuB6JyjEF/AlpGHHg5HyJnZCXn29Fbe2Rk/sZmnVvBpQ0RT+yBkzmACPts3asXVgyWYkOfN74W0WT3w5XFfbh9FPIuJON4UFJJRK0zERdNrNJpwJykDBZzMX8jNUyvmQh7NxHvZmjohOwAXLt6C4ilHICGbRedSnty8s1MIucmoFbxFP7moxk/AVU40XIOfvX+aT2lbPq8BPBNPQHzhcYjOPw6xBcf53Z14I1BKGQ5JrIPUinpu+JQgT0UDH0ueXF7PH7iMo1Zii+shaWIjpE9ugsrFrbDmhR547/fn4HjDdbDq90QBz5hupFjkceTcAsy1Igs53q5f8gj7czjl6zd46Z0B8GA6JUTjyEXTazSacCcpYxcYZi3k5hE5pVUMIX8oaQ9889u+GQkPHr7IxPsAi8yVzk4nQi5F5GklNZBceMRPwJ9/owvWPtsGh49d4SkaJ2Be+fbte3Bj8C5cvXYHLl+5A1fYK36+xb7H352AI1dw2OJTr/fBi9+TUygo4CxK5ykWEvHghBxHruz40ne87/7hEiRN6wnZDUGi6TUaTbiTlL4TktJJxO2F3DQiF9F4jGcvzFxwFO4KQUWxnLWIRcFp+7w5cj8hl0et2ETk+Jpc4C/gG1/tgOgstkzZMUgoqIHo7COQVHQUSmbVwbInW+GV73bDr//YD9v3XISaE1eho3uQz5J49RoT61v3eNlQ+PEVP1+7fhfODuBIlEE4xsR55/7L8Nu/DMBrPzwFKzd1QcXCVvBUNUJ8aQOkVDRC1rQWSChrgmffPClKJAR8Go5QkTo75WjcoZBnzOqC6av72J+LLxe+9rV+nloJdIu+o85OZqLpNRpNuJOUxgQczYWQm0bkTMTHJeyCt3/sezo9RrrT5x+DCakk4iZCbhuRH4HUYibOBYehoUkS8G92QBQTcCe36GN+3DPxOL8ZKIUZTmFLloJpFUypMPNU1EFaZT0frcLz5GY5cqmzM6GsEZ79jiTgbUzAp7YwAffv7KRRK06EPH1GB0xa0QNnL/hG7/zx88s8Ijfy5GKelQBCzsXcJiIXTa/RaMKdRM8OJuBooRHycQm74blXmoX8GHy+5SzEZexjtt+1kHuKDkNSfjXUSwKOY8ijMquNjk5l1IqVkPMRKyEctZLAovENb/SJEhkCnj61GbJnMPE2GbViLeSdfPhh8pR2+OBT/3nRf/q7C5A0hQm83NkpC7nFfOSBInLR9BqNJtxJ9GwHFHE/IeciHryQx6fvhaSsfbBn/3khRQbHTlyGyQ8fhW8ksnVyD5gLuZxaKa5m76shKc9fwE+fuQlrNrRADBPxmKxqFqX7Rq2MpJBjdJ5QWg/xzNa+2A2n+n0djU1tNyB9SjNk4TjyIcMPmYDLQs4sh1liRStULe2CPdW+Y0MaWgehbHE3ZMxk4i3lyN0+WMJKyEXTazSacCcxlQk4mpmQyxG5V8ydCXlq7j6I9eyBhMx98MGfTglp8nHg0EVYsKIWJqTshZg0tny+eUTuKWQCnnuICbj5vClIe9cN+MNf+uHpl9th6sJ6JtTHIC73CMTmHIEYYXF5NXzIYWLhUUgqPgbJzPA1qfg4JDLDUSs4YgUN3ycU1/JpbKctbYFnXuuBD/46wPbj/0xLGR6BT27iNwN5hx/yIYiGkOOrZ1ILJJS3wLx13bBt39BpcbftvwpFCzrBM7WdCTemVoSASzlyubNziJBzMRdCLou5kloRTa/RaMKdxJRtTMDRRkbIMSLHaPwb8bugatYR2LZzQMiVD+xQ3LZrANY83chFPDZ9P4vADRFPKTgECbkH/QT8mZfaYPHqBti2+zzPszsFR5pgp+Xg4F24ceMuf73JPlvN9W0GdnjuOnAZVmzohE1v9IpvjQgc7+zEFEvujGZIY2IeX9rI7/Bc9XwPfL7zsulDJw6fuA6Ln+7l0Tjeou/Nj4v0ipNRK2ZC7hPxoUIuml6j0YQ7CSlbIQFF3K2Qy6kVr5jbCzkXc/Z+XOJu3un5/DdboL5xaCT6X7/ohfEp2PFp3N2ZkOMv4BteboUJaV/y/HgCi84npB+EmKxDkFNZAw8vrWe/t8M77/XBh5+ehX0HL0F98zU+/8rp/ltw/sJtPgfKlat34BKfC+U2nDl7C7p6B6Gx5TocqL4MH31xHn78y9N8zpV5q1uhYEY9i9JrIa7wBKRMrOW358cV1cKmbw0V8MypKNz18IsPfBNdyeCcK997r58/YCKhvBmyZvinVgIOP5TFPMiIXDS9RqMJdxKSmYCjhULIHUbk3MTwQ4zOxyft4cMQ5y45DptebuF3ddIt+lzAs79kQq8IuOeAX2en2TjyNBxHzsxTUsOf14k3BCUXGpaE74uO8lQKzrWSWoYTZxmzH6IFypGjmG96o0eUSAh4VQNkTmEizixnehNs3XMJfvfReVj8RCd4JjXxkSsZLCJ3Ph+5jZC7icjlHDkz0fQajSbcSUjaAtzul5DLNwSZzLWCYh6fdQCO1/ki9Z/9ug/+M34vxLPIXB21oo4jV+/stOzsFB2dTjo7U8tq4aHs4/Dz3/WLEgHUNV3nd3ZmMfGmUSuZNHIlxA+WCFrIRUQuml6j0YQ78UmbIZ5E3I2QcxEPfURuNo1tAhPwvIpq6Oj0f6jDqTOD8B4T8zlLayG1oJpH5VHpX/L5x3HoYWrRYfAUK0/StxFynDgLp69NEzMgJhYd4w+WwImzMCqf/1gLE+0zfqNPEEy/lM5p5LfnBxp+6BPx+yfkouk1Gk24E5/IBBxNFnIScUnIuZiPdkQuCbmHCXl02n5IKzgIP3q3G870+8+lLXPv3j3+O+bNd+67AH/++Cz8/P1T8M57vfDmO93wxve74bXvdcEbb3fDd97p4fnyX/z2NPz503Owa/9Fftcn5sXtbq/HOzt/+qszkDOlDhJLTvARK1bDD79qQi6aXqPRhDvxCV8AN0nIh0TjboWci7g7IU/N2QsJGXthQtJuSGLf2UXkaPFZ++GhlL2QmPMlTJ9/HF75djt89Fk/nwHx4qXbQmaHB26nseUafPzFALz2/R6YtbyJ58oxIk8pldIrJjnyLCbomZPqIaGkDjKq6iFnWELOBFwWcjk/7hVyQ8TthJzGkYum12g04U5cvBBwl0KuplYSmMUmMUveDvEp2x0LeUr2HohJ2QXx6Xtg63ZjKtqf/bIHEtjnZB6ZG0LOxdxEyNHohiDs8EwRo1ZiMg4YKZU0FrmnM8v4kn3Hvs88CLHZhyA+pxricg6x99XcYoThHCvR2Yf504JwHnJ8WhCmVtzcEJRZZdya//PfGznynfsvQQYT89Ryd0KeOa2ZWQufe4ULup2QUzTuQMhF02s0mnAnLv5vYJiFkHMxF0Iui7kUkY+L+gIWLT0MZ84Mcjt85AKPyOOZqHMhl1MrQsxRwGOSdkJC2i7YvM03hziyfdc5yCk+wCJyJvDe1Aozh0JudkOQr7NT7fA84ujBEm7u7PSU10LRzHrYsc//1vjt7HM6i8YDCXkWjlRhrzV11/nj3tBWv9ALyZXNIiIXYs6F3BBzQ8jNxVwVctH0Go0m3ImL+xy4DUPIHxz/BSxfWSNkCqCz6xpPrcSxaFzNkSdn7IToRBT3nUy4faM4kK07zrLIezdEs4gcc+PmOXJDyK1GrbgWcpPhh45GrQQQ8qxJtXzCLHxu5/Y9/kK+Y99lX0Q+baiQG8MQm6Gr15fnX/9KLySWM4F3lCNXhFyJyEXTazSacCculok32jCE/MGH/gbLHz0ipEYIOIu+45K3cSEnEY9O2MbTK5u3KsK9nQk3i8QxIk/JMs+RW3V2GmI+HCFn4j3SQl5WC+ko5HsviiM2wAgd8+OqkKOAo5CbCrirzk5zIRdNr9Fowp3Y2M8AzbWQS6NWHnzo86ECnrIN4pK2QhIT8Ki4rez9NibcvocAI9u290NCKhN2FpEnyzlyb57cgZB7RXy4qRUTIeciHiIhZ+YT8qERuTe1woQ8c7Ih5H4C/jIT8DIjMrfu7LQScibekpCLptdoNOFObMynwE0WchJxhxH5A+OYgK84LKSGIvCtMC5qM8QmboXNW1ThPssj8SgWkSdjblzOkVt0droScjcROc65Yink8hjykRfy7XsNIU8uq+M5clnA173UAwllDYaAcxEPXshF02s0mnAnNpqJN9owhPyBb3wGy1ZUC6kBaG65ArHxW+Dzz/1nIcSIO55F4hiRJ6WZDD8MtZC7ichDLeRCxLmQk4hbCLna2Ym34KOQt3T4Zj9c91I3n8pW7ux0LeQirSKaXqPRhDsx0Z8wAUeThdwQcadC/sCDn/oJuMoXm89ANBN0jMjjk7YK2wbxyZgTN/LiccxMR60EK+QWNwS5EnKTESvBCHka+4x3d6ZPxCcEGXOucGMRenplLb8RKHViLWzd7Z8jl+ECXsIEXOrsDHYcuWh6jUYT7sREfQwxUZ+An5BTNO5AyOOZkP/nA9YCjumUpuYr0Nl5DTo6rkIHvlrYkSMXIC17l6tx5LKQGyJuLuRczN0IORdzisbthJwJuIWQe0qPQu6k43Dk+FXo7Bn0WpeZ9Q6yiPsGdPeZ32G67kUm4DhHuejoHI6Qi6bXaDThTsyEv0LMBBRxMhJyczGPU8Wcifj4CZ9Bfv4O6GJiPRyuXLkN6Tk7+Q1BlqkVr5gzAfeKub+Qm0fkzEjIQzH8UBJzq3HkKSU1kMcE/NIV53OWm9F76iZULWoK2Vwrouk1Gk24EzMeBZzMJ+KBhVwScUnI/4NF4xiRc3uQ2Tc+8xp2dnrtob8ZNh7tCz6WHG8Isr1FPySpFUnIXUfkJkLORdxeyGNzD0NsDtoR9p6sBmLz0I5CXL5kBcd8Vmg8HQjTK95b9J3MtcLMTshF02s0mnAnevxHEI0i7lbIA6RW3Iwjl+/sHIlpbM1TK6EScibeqpC7yZEHGLXCzWyuFbdCzsXcEHLR9BqNJtyJfogJONpoC3mw09iGPCKntMoICPmQiPw+CbmSWhFNr9Fowp3ocX8Bbq6FnIn3/YzIuYiHMCKnaNytkDMRD5uIXAi5aHqNRhPuRI370BBwt0IuR+OjIORczEcjIg9WyG0j8mHeEEQiHiIhF02v0WjCnahvfAjcZCF/aLhCboh4UELuchrbkRZyLuZfFSEPUUQuml6j0YQ7UQ/+Gbi5FnIm4FapFYrGHY4jHzEh5yIeGiEfuRuCmICPspCLptdoNOFO1AN/MgRcFXJmXiHnYi6EnIu5LORCzLmQG2JuCLm5mPNx5CZCPmqpFa+YuxRyPzF3IeRDIvKhYm41/HCkhFw0vUajCXcmMAFHsxTyYFMrAYVcEnGHQu4T8aFC7jq1EgohdxORWwk5F/HRFXLR9BqNRqPRaDQajUaj0Wg0Go1Go9FoNBqNRqPRaDQajUaj0Wg0Gk0oqGSGY1TRVuAXmhHn75k1MaN6t7P3mWUy+wdmoYL2f53ZOPwiRPwds/9jvPUyUvsaLdyU30m74naoTUcKs3YIlmhmWO7NzELpg5oQ8C/MTjLbw+wTZthQhcw0I4tTUfgnZquZ0ckfqj/YUIsqCsa7zCLRf4IRcLtlsU2nMMPzLtTCOBLtoAX8K4ocLWBjk5iH6qTWWONWQKltLjH7R/ximGgBd06oBVyGrn5D1a5awMcIckPLUR01lp1DyWKykBkub2YlzOT0jGpm0aTd8mSvMCPk47Az9YSiYzBbFs3sBJT/4OhqxcycRMluT/RnmOG2zU6if2b2O2ZqOcjM9mG3f7dtYLU81YPdvka7HdweGzKSAo5Q26rlDXU7IMEcP2nCdmZWfobHa/aHEcz+nJzTZm0bzHkQtlDFmgmCnVgg8klnVpHU4Gjv4RcK8gkoV6hdmRB5v4GiC3lZ1UFoP1Z/UnQS4jLy8QU6bqvjMkPeh1NTjwMJVGeImUBYCU2wbWAX+QXa12i1Q7DHZlV+M9wsS1C55HNlJNoh2G3K57NZfVu1U7D7I3810w4rAu0LsfqjDDvkBglkdgJsdeLR71ZOLDe46mQy/8oshVkFMxQvamy79WQHNmtMp/s2uxIJdNxOt43YnehyJIFRz78zM0PenxOTy223fxmnbeBWwJ3W1Ui2g9Njc1pXiJtlCSeCFYp2UHG6TWoDO3E0aycVt/VNv5F9h5lZx6/V8lZmV8avPFb/eirycuo/VqATiH63cmKrE0z9Y/kDs+eZLWCWwOzrzOzKTv/CdieP1b5V7qeAE/L2zPbpZn8qVvsPtg3CQcCDPTarujLDzbKI1fIj0Q7BbpPWcyvgwe5P5d+YzWGmpstIl5z6UtgjN66Tywi5AeSKGQkBd9IIFKlYlQe/d3JcJPROBEDe3mgLOGF13Ih8LFaRutnlpdn+h9MGbgUcGc12GM6xWZXfDDfLWvntcMpq1Q7D2aasA2bnl7xt+j3Y/TnRKLM/lGDPg7CCKszNAdBByw4Z6ASi362c2Kpx1X9s1R5jpjYulc+JyZeo8sljZmZlD0Y4rKBlnZzoiN1JFOhY0NR1rPYfTBsQ8gmJRvVtd6yj2Q7BHpubtpL37cReZ2Z2Lo5EOwS7TVoPdeMl8V41s7oJdn+yiFuZmYYFcx5oNBqNRqPRaDQajUaj0Wg0Go1Go9FoNBqNRqPRaDSa+w7edYjDntRB+jjoHwf8f5XHa7oZXvZVAOvZaugdIQ/L1EOuRg83ww/tphd2sh30VzfT2QZ7juIwwnA5NzQukceXoxOocxfj3VfyeNZA46o11tBJHWj8P42j1VMLjz5Og4FA0ws72Y7T6WxDcY7SWHAdDEQQgW7EkKFl9T95cNAJHaiu5cgNT0Rd76OLUwEnrM4ht9shkVa3E8pzVIt4hCHfaYWNHuyTSYKZPpKcCSfGQaejZTEKSRbvrSYVomiDHNHuZMH9yNuXDZc3i1ZCPR2m3e3tMla3L1Nd2Z3E8omupxYeak5Fy63wki+q0bPb7SCqXyOhOkcRp36oCTMot4YNa2Z4KW+VY6OT2y4tYOaYJEpoZs6E65g5P60n78/qZLGKahBaR91/sMdjhxMBRuz2Tfu0Kpcsfmblkuvb7I/RKnoLVB/yfgOJgrysLPiIXVshcnvJxxfouK2Oywp5P05NPRYkGAGnOjBrn+GcozJm548mglHza/IJ5tbZ5XUDORJFC/LvdDKqJ7nZyRJMtDGc47HD7sQkZIENZHYCbFWmQEImH7tdfTmdilRGbguz9na6b7M/wkDH7XTbhJkvEfKVmd30wojddqyg88zOT8ywO0dV3P6hab6iuHVsRHWwYLZBOIkEyNlw2yQCZo5ndrIMV8DdHo8dgQScjjPQfuXl1GgzkJAFOnGtjl39Y3E7FSkdu51gOK33+y3ghLzNQPu1246M2fJuy44E+hMI5AeaMEI+OTE3aocsHrIzyZe+bqaPdCLgCK6L26a8rpkjW50sctnUk8zq5Aj2eOwwEx5C/qNxkpKR20wu90gIuBMBkSM/s/Lg906Oy66tELksZikUJ+tZHYMMLe9E4KyOHXGzHbu6CsU5KuP0vNOECSgg8nAoO8NLZrNGlx3HyqwcM5AjORE4u5PFrmxWJ1cwx2OH3dUAiYCbE4rETi4/lTmUAo7IAmJmZlORUvmcmBwpBqp3u/a9HwKOyPUj+4S8XydmNZ0tEopzFLHzQ41GYwOd0FZCo9GMNPTH6ib40Gg0AhJxffmqGW3oSkGLt0YzTDBtoiNxzWiB4u00JaTRaDQajUaj0Wg0Go1Go9FoNBqNRqPRaDQajUaj0Wg0Go1GE7587Wv/P4L10TZY1qyXAAAAAElFTkSuQmCC;" parent="FMNDqlk5sN2ux17kd3Ov-16" vertex="1">
          <mxGeometry x="-10" y="50" width="248.89" height="140" as="geometry" />
        </mxCell>
        <mxCell id="FMNDqlk5sN2ux17kd3Ov-20" value="" style="shape=image;verticalLabelPosition=bottom;labelBackgroundColor=default;verticalAlign=top;aspect=fixed;imageAspect=0;image=data:image/png,iVBORw0KGgoAAAANSUhEUgAAAPgAAACaCAYAAAHz6rXMAAAAAXNSR0IArs4c6QAAAARnQU1BAACxjwv8YQUAAAAJcEhZcwAAFxEAABcRAcom8z8AAByNSURBVHhe7Z0LlCRVeccHJUJQo6iwIOjITlfd6u569OygIJKsiijgOUiiiEZQ8YGiCaCHHMUXBNHgOWE9RDyKgCALu9vdVdU9vbOzPAIbjSQYIYAsAoq8XyEoLm4WIpDJ96++3+6ltrqnZ6a7d7r5fud8p+o+6nHrq+++6ta9I0KneCp6n7/k0pcuH714V98OP+7Z4ZOBs/YWHdw/fLt2nN7dcXh2vLmUn54p5admtFf/wEVdK1wxXriy/xf37Noh2JZy5T0SD0EYVK4mebi5u5WL9LZEcpSWtJlt0tsFgYsDPjm2LLg4YPe7jH2W4aPvqcIFoe8f6v1dSZii3gpCdwicRts3HBUKvdt9Svl1ycmpHvdELje9S+BMzrh29Syqx90G//H8Fb2/eCt2yMXhr8N2avr0gKyLB05txlfRLb4d/cRXYX9Tjovr3RG6if5evJRfu9WvlF/fu4uP57evGps31NOLCzsKLrMvJEnrdxXJnc3d7oOL8QVfTML7s22FBfEZvQXYx6OHmP5SjxNGlhWuTsr6ucp44arBNVUkgKp7N2lnWwLVeABbX9UfTDyIntbKekmivWL0Rux7qvYPvqr9bRJANT3UdwOqhniqertvVQ+gOtBJStVf7jrx5xGhpBrfGuiE6915MfQJb9UEW+iD22F0euOt4vW0zdlL5pLwYi4e8+3wfmifMsRNnl09fGBbAJ0mHA18FF8QaDnZp0T7Kh7MhHtWtIa09xRtv9RKfHvyq46z2oamKWd/jnL7m+iYLSVnijQfn61PJQiLAP4CwL39reBPErPB3ddb9Jbd/ImjK58tugEnHLxEb8HuessZFBLO+9jygzLb8ebxiIPvNQyHLZqEzwVOpPmwhGEA3RP8WmOf7RWwP0BXBjDfADMv4H2zu2NRYyYcN4+MCW7YPfaRYcHNCTYTBn8+lo8TBGER4tnxuc3xUdv3qbWX6RnPjk7RpxksSvnQosbGN7VzzlDCrxgdvdgchDAYUNv6jlyuvEegJldrr4RlTrS33t0Ktb0P8e3oMIr7E7jp2BOb/uFl2A4U1MS8nZqc+wWqvpZe+Y2eKh/Z9K9+2reqpxYKlZdA4EcJ/yy2gDT9rKfCpDlK25WJ5yCBhOeXhlZzP57xrMuX+qr2qyC/7jpfTT4zMXH+nyDMtcOjqF1+oW+FK3xV30gJ/2zgTP4CYQObcL27HZTwH+jdtgxdwjtl6BMe2LWjMCoXI3RRnKE/PXDq/zQ6umEAc/UOE+7vt9r27drHtXMrudzKPyONX6Odg0OnCS/a0RuhYWibyv2VVIR9nzK4Z6B52v+5jjY4zCXh0K52Po+hT7g5homh8v/WoU84tr4VX4ARZJSp4RW/Cn5Dn3DHWbldNRYMfcIpM7u+5KxNPhtBkoxNhU8MaMLDit5tS96qHjAycvrO2vk8qLFyo94dLAJVQ7v6m+nvZaaMjMzshOJsvHDVDCX0PrwpqMwsG+QxMIIgCIPKa/UWtPuKOdsnZIZzcv4yaubs+MnM/Jq6Q+GE83BevlFszc+/nHDcPB/D39PM72NLSHDsXvAgzGHB8F90CWc4MZzo95DghjnhZscCJ9hMnPlxEXHNb2oIW7QJRwKRUNYs9jfofXwghDutafPDIGuc3TwuH7KcBAk3wwcGJPa05q4gCAMKj1RCrgx7zsqJOXPClm0e+3ysuW+OfFrUmDfK+5w7M60Sbpb95v5AkJVwJMpMrClmwnnLRR3HEQRBEARhePBUdBM+tXkqvtW1ondj4FSvxVfhe3279pCPzwWqeqm+FaHXeHY4NV7YsT9f4vqeVT1DO4Vego9ryedUK1yKcaMFu3JwfqxaHM9fNho4a/8GcYrW6rxvxye6dtUnq7xkZOT0F1FucLSnyt7ISOXF7lj5za4dvx9xA6fxDWzNCQk9FX6Zx5P6dvS/2m/rT3D42DeQQ7IGEVPhpIy3a+8RV4UrsPXt6sXeWGUiUI3fQtG+ij+NkVWBHb7Ft8vH5HLn7oK/HxE3ULXNdJ6zXVXdH27g2dF9lH1Paye9EPXkRRCF7yBY4do5J2C5y5dvyByDkIVv1y8vqantfm8VhfeRhSi8W4jC+0g/FB6M1l5ZtKIgqaHnogNJ9tVBCROFa6HwsnYKvaQXCvdV/T6U1cncFHb0vSKV9xhbi99GJiYau/lObJP/KdQkewTXXla8hq5f4V9DhV7SbYVjUGVz9sfaI6Tgl2nvllC885K2+CAOuBxEeqFwPl/JaXyCzv8bzEWCcZWmkP8mahV8B/9NNf+BFIX3hd4pPHsEcRaYikgU3id6laVjnDzKcG3NUOjDJLdSm/wuzECEUdXonEEvGyb9FYX3iV5ZeKsfoLKQLL2P9MrC9eRptXw+HNVBz2Ni78ZurhWeBmWLhfeRXln4kiWXvhTuQq5eQI+cb4dVaopdS23xdZ4VneM6k4cmBxBi4X3EXxrtifKWFF/TXguk8mLMEBzQOd1cjMHBLXGc+NXUZr8ZzbJARZ/S3kI/8Kz4I81KFOa1fH4TqlOZcH+M2vmL9ClHXLvheHb8I7LsRxKlUiWu+XtrtMVT8TUUhiH3giAIgiAILyj497u0zHdSI/zax/8xdIOs++O5hIH5qx+L+R8kwgdyjuBewf9YmpgPif/NZME/miCtCCjZ/O8y7cb/m9gCnPMfSeDma/P/nByXgdtUsAl+rDGVy+D++Ryi8BRZFsTtYPPBMfj1CgrAw+b4R5MwpoUjzITdiGO+ZLxqlylZSnofiRmGe2m1yhPiAVF4iiwLN+EHx7AbFmlaHk/bbCociuQcAQ+ejzXjALw85j2YLwSOSVu4eU/Y5+IHLwBeUNyLeV1R+A7CVFSvwdq9wg6AF02WRVUEYTHTqkbcCf3MyoUuYSocCjSFK1Vm0woCzBo4OJnEjMOVN8xLUCVhf7OiZcY3X7pWTTmhC6QVzsDfbIZBMIeS2XFjxjfnTGIBULipTPZv1fTqtCknzJPZFI7mnfnAzeYex0+369H84rBWCjdfKGD6t2rKCYIgCIIgCIIgCMLQMbH0/FcEqr4ZMzHgJ4J+CIY1+07jIX0LQr/AP2D4cQDK9u3wdHMutV6Kr+IV+JGwORmA0DfowT8NZWtnv9lpvLAeL9od2i30muaEOpWvaGffIWtvIIfRTqHXoDxNJtqxw3/z7PjWwFq7jw7ajkKuXNC7sxKoxm2+amzEfjKhn9N40Lejs+D27CjEFvhWeBrKc+0Ueg0U7lvVA0gJf4Qb/4Al/mryS77f/AM0UGvPKBTKr6KwR8kiD4ef78SnuU75zYXCFa8qFCp7YT6Xoh0eV7AqpaKqvdXLrdw6UxOd+3+a2+rnPO/y3enluicJILD0mii8j2xTePiMp2oeKedeku8hzFfR00W7fEwSEbMw2uFvsWdsn/Qcyh1UdKRrh05gXbIPKfVfEFbKTz+39eWwwguS7dJoT8+qflAUvgMxFQ5rhZ+vwpux9VR4PbaBmvoJpt4iBT+e+HNuYIe/K6rqQZiGi455Lyn+nFJh+msIA5QjxNjSeZKFjpG1F8eqB1G8u+EGovA+A4UHVvlN2GqvET9HyrNrmIGJLHzNW1yrdgRZ5jmkuLvdXHQ8bc8kpZWpTH7Ey4d/UbTifC43vUvg1K8J7MlT6Hz7uHZ8LJXjyUS6pPjbfavygcBZ+wzc9HI9hPLct6JTAzv6gii8j0DRnrXmHdo5J6A4vTsrmI0RP/+PqzoGVGxFLLzPJAq3q4doZ0foSl6knQtCFN5n5qPwbiIK7zOi8BcY/VB4c/L9+OBAhW8r5eqF0dENW0fCkv/XJoobROH9olcK91W8Dt22mK8NkwXhOpieq7k/PYPJgyjO/fl8ddzXU3wJfaDbCkebPPn6hoVr7Og2as59pDhWex2sGtNne97U7r5dPozCQrwQgTM549qVVfpwodd0W+HowCElPq2ds+LZ8eodvarSC4quW7iKZ0qYGN+qnaC9WlIYK+cCNfks7kF7Cb2mFwoP9CR8KKfJ4p+k7PtK3wrP81X4bd8OqyR3oWxHHFxfFN5HeqFwUvI96FHzVa1M7qeeP7vjVfRC1Geodn4jVkEsouZOlTh9uNBreqFwsuT7tXNWMP2mKLyP9Ebh1Qe0c1Z8OzpMFN5HeqHw5gS6YYz1TLR3Jq6qH99sp0sZ3jd6Uoar8Dm0sXFubDFQgiz5Dqq8bfRU9Bja3km4M4XOF1F4P+mFwn0V3Yd9TMlNlbPrqEx/GkpGrTwJJ+X7dv0bo6MXv9J1okMlS+8jvVG4VNoWLb1RePw77ZwVzwpPEIX3kR5l6SS1Z1wVfajVEpOe01hG8W7hzhftLfSaXiicauhPoMzGuWG9SYdLUhunfXxBIzfWWVmGnjgV/kwU3kfwsPGdWjsXjFmGJwMb7er7ye+79BJcidGrVGG7nGrrp/AKwxjiLFl6H4G1uaqyQjsXDGXlc6q0ScdLnyHLe7z5eXLbakQLwVPVa9BX7qlaebYloqnC9tFxUvaywj+LwvvHzE74ZRdlLCl/Lf71wjiz+Yibq34MZ/TV5NV4ibgMp2x7E517I2XpN9P2EbwQSXiyPunk0xgYkdyK0D8oK97YHKmybR2yuYpvV3+lT5fgWfEn6bz/TkrGoIhtHS8q+g3lAOeUcuU9dFRBEARBEARBEARBEARBWDykF6aBLGQpiW73b6fvD+upmKwhMcMhJrx0pqDBA02vJIyHNt+HlH7gCyFrHRNz0Rusk5ION9dRAaLwFFkKNx9Sq6Wi0pYH0ktWmW5MrmcuksPH49rpBW953VAor91KRYibhflSiMJTpBV+IAk/yPSKQrAouNOrE5nwsbyUNIPrmAo3l6ZKK850m1m2uYpxu3swV2AShadIW6r5z7VpKcBcqZfjt1qjDNZpviymEhCHjzHXGDclraRRknUkHCYKnydpCzdpp3AAZfFisqYyQbr8TSucaae49PWBeV7zPCbmcaLwFO0U3ipL72RRunSWjgefpXAAdzqXgBvXT5fhfA/ArLThxcFxp+stIwpP0U7hwMzy21Xa+KGyP87ZrtJmwjVrMy6TbnalcwMo3QxPx4HC0+FcKRR6CBTTrweN9U355RL6BGexsHTO3tvlJMIQsD8JFI0sdj94CIIgCILQd1AWz4d0j5sw5IjCBxS2cLSnqyRwQ7gnLP3FC0o2+8lZ6WYcCJP2544c9LaZ/kyrL2xCl+CHbXZnAvY3+69NTAvHsWaHCHriWFE4D7fTzXh8fmB23pj+IO0WFgg/0LTS2N+0RPMzZjpLT3eVZimQ+/BbfVjp9AubsADwQEErhTPvIWEFAFPhsGhT+WkLZ2ZTeLsvbEKXmE3h+GhiWhh/lDEVns72cWxW1s0KB+38za7atFtYIPzgWyk8XYniwYbsj3IfyjfjfJBkNsVi3zyGSZ/L/MImCIIgCIIgCIIgCIIgCIIgCIIgzAPXDh3fib/o27VJLLRAcvvQiB3eGKj6qsCpneAvvXRPnWRBGG7yb7hs1HfqN2C2dV5wozlpN5alby5hOxzSXEQEk403Fw65egaLcGO9Cf0oBGG48Ozw3GVFMmxVIwOYmsGqdwfuW/5THTyUYJEYT0URMjGkG8s0u3b1WB0sCMOBZ1W/hFIMpZunwl9OjLRf0HbYKIyVc56qbU7We3OmZlynfKgOEoTBh0qxW5rV8OkZ14rerb0XPZ73ry2H2nve1O6joxd3PFA3UOGZzWVmsM5fhBHigjAcoOOJ26eBVX6TZ4VL0TYl/1N9J/4rX9Vv8ezo+qOPbr9iWhZUO/gPLH2rnQvG3W9yiW9Hf/BVbZWbKy/3rfqHi3oNSN+P9vRU/Fig6uuLqvrWZOFtZ/I5iv/15GCCjPcxV4Xf1s6tYMEwXtCTajErtbcgDD6mgftW9QAYOBZFKxXqBYR7TmUCa2E6TmwXllZe79vxQ2Q411KVlgw//Bmq9IWxyZxvh48GanKawic9u3q4a1W/G5CBkcHd7dtV/FJLBhaeTO6nyBBrVC2+FQaHFfWKY9WDKCPZ4trhL7DyPQyZModz6Lp30TnX0D39dz4fWsucaG9UpcnvHJzPhO5lAxnvtHYmFK04T+elqne8HG6Kcw/dw9lJoIEYuDC0pA08MWIV/R8Z14NkHPeSMd0II0/i2tENMNzkQIIM90YyqhXjqv5aiv/7QDVW+XY5mZHqsNz0LmT0jwcq+hTcSVsXqyna4Vvgdseq76fw3+Vy5+5CJe5BZOxbJgqV1yOM9o/0ndqTlFl8DX0EZNR3+1Z8HsJAwaqUSqoxhSo1neM4+NG5N5LwL1gJ7n6rllDt41nfqnwAbjFw4QVHqxKcSlhPR9kKvfzrSaa0E4b4IBn9V7UzwYxD4b93VTlZK3fvvc/fDdVrCjsZbjdXPZau83vDwJ+iJoGNMN+uHExhmycmzt8N7lZ4qnImGfhvk307+gxlSM/a9uWvSQIJCvsGnefJQuG8l8FNce6la52RBBqIgQtDi2ngKF0L+5ZfRUbxw0CtfoOO8jzIaE6kKvpNVP2+zs1FSY8zSvjAqa/37PhWMrLz35Sb/rPE364eQkazjs530cTEDUnvPAaYkEGdQRnJl8n/vyYmGrsVc/GYr8ILqLq+F+IAx1lt07nqZPi3UbV+2nci1/cvfSnd7yWU+dxJ178jUPGZlAls7fW3rPI+FPYjOuaJ/d2foh/hJB2U4Knq35ecRoXSMBk4axt0f9+Hv2tXvyAGLgwlpoHDILV3T/CsylcCMkBfxdQ+bzztW9GpOqgnkLH+deCsu5qq+gdrr0ykBBeGln4a+GJFDFwYWsTAxcCFIUYMXAxcGGIG1cCTjjkr+jC158/37eg69JB7KtqCb/b4WSb5Xp5sJ9HZBsN9gra/pHhX+Pbk10kOm1haeQXO5VnhR0vO1AP0DB50VXW7gTCCMLAMioHj852vJtdt+xuskdwz9lH6kqHPkKE/6dvho2TEv/bs8Je+qt5O23tIHsdnOBg9vp0jfvI3WX4q+ZuM/DdRBvAVfSlBGB4Wv4HP7EQGeiV+Y0XpnPztpqJ60am+E9/QdaQ54y+N9vTt2sd9Vd+ITAMZBP6o86zqJ3UUQRh8FruB563qAU3DxhDV+h+K1uq8DuoavhWelpTqZOiUmfyn9haEwWexG3jRjt6I0jVwalTKhknVejy/nqrj8a/JML/t5mtH5PPh6PLlp++sD2mJUvWXY3x6oKLj6ZwVjKxDFR//g9Nz0M8g/LmOLgiDz6AYeCm/Fm3sR6ktfhG5H0va3miLJ/c+RUJt86QnvNkbvk3IDX/KFBCH4y6jtjiOpTb7DXTeVc1aQlKCi4ELw8PgGDgZowrvz+VWJsNgmdHRDbu6dsPBv+yeHX0C1W1PhWdT3BXJH2l29SzfiT9PpfaHiqr2VszkMjJy+ov04QmeHb+nafxi4MKQMWgGrtSFL9dBXcNT0ZFi4MJQMjht8ElqKzf+SG3vE3VQV0CNwFNx3HwGYuDCkDE4Bt7sCAucetKuhsFTlXwjtZ3Pc+34WKp6HxhY5X3QkYbpmvCXGSaTwOSRwWjtlfgf3XWiQ11VPYnOV/Ht2kPNdjlqBrF0sgnDyeBU0adg0PcW7fCYZNYYFW9udqphoEvTUJsdaJBmadwU05874nQHm4rvp3N+k9rsf4dBMFKCC0PH4Bh4dicbg4kWk9Fuueq4m4uXo7Qm9zvwjzv+JS+O1V43sXf2BBLSySYMLYNl4NV79+3BfO1k4IeLgQtDyaAYONrg+BZOVfPrMcWTDl4QaKN7VvzJQE0+jjZ98xmIgQtDxCAZeHPllXVJBxsPXqE29GbfDm/EYBVXRd+iNHyOSvqPYZUS8j+OquknuHb4RfL/Dtru5HcXne85HiTTbHsn49vFwIXhY7Cq6NFvMIGil6/9ua/q3/VVbaOnwucQhpFpkObItfWGNDvi8NcYtkFzzvdNnop+6qn6l4u51WNFJ35n8xlIFV0YMlD6cfszcKK/1N6LhnQnGz6D6aCuIQNdhKGFqrOfTsZlo2Szo0dLufIeOmhR4KmyIqN7FlVpXzX+iDazDuoKqBFQTaCCDASlP1X5r9VBgjAcUDX35GTiAyopUaWlEnMdGdZ286LvKJL1ylX9YWRE2wa61DFLy81knCtcVfmQ59QmCqOVvVDC4z/x5SMbdl6+fMPOGKuOgS744yxQ4duoxnIiHYOfSx7g7+do0y8rXjvj2pVwPks0CcKiB0ZBJfglzc4nVNcx+wkPJEG7tr8y4f4Y1eU70z+GkIEeQ8Z+JcmW5N6S+zMHujTb0uNamlXvbQNgkvPrNPp2/AgZ+g+8sWiZPr0gDD8w9pIzeahnVc+g0vwCKilXUjv10n6K7zQuo+ueSbezU/Ou2mPbjddgOGpgxVhA8R2uFR7h2dXDi2rN24JCrYQlmXrRfhcEQRAEQRAEQRAEQRAEQRAEQRAEQRAEQXgh81qSh0lm2shPSY4n2ZWk32Ao5/tIzkpcixO+x3Uk5nNbRbKcpBP2J/khiakLPHekey+SVryE5E6STSS7w0MQTNjAryZpZcB4+fjF+ww8+kiJBNe9KHEtLmDYF5Lg/vD89iMxwXNbQ9Lq/tk4Eb6F5AgSUwdLSE4jQTgkK5MTAxfa0omBg3YvUvpFhJxNkn7hGcRHaWXGr5LgBWdM4zHFNBTEOZmEwzaQ4JpHabeZGXFGAb8DSTjDwjFFEobTYpakKImz0sLXmS3z4Wdj3g8/904Nk6+V1pMYuNCWTg2cDcSMZ1bvYdBclTQNDyUTG5BptCeRmNfjWoIZH7QqwfmFR3yuBsM4ucSEZBk4JCutZmmKkpLDcc8fJIF/2ojSJTCaMe2q04z5HN4Fjw7JyijEwIW2mEY6m5iG0clLms4UzGNQcuZIZiPLwGfLlLIMISuDYvi+0pmLSbtr4nizOp4WZH7mMfM1yqwagxi40JZOS/A0nbxYreKgipzukGIxS0+QZeBZfibtquhZx/B9Inw2mashoVbB5+b7kRJc6BvzNfD5lODtwPm4KmzGzzLMhZTgWQY+H4ObyzFZz4HT0Mow0cQxe9ClDS7Mi/kaOOBj8eKZbfBXk7CRtWqD43pmxxVKOg7LKq3T92e2wfn8nbTBW5X6ZimevjezU840ZvMY3Ee7XvCs6j+O5/vNOt68LsRMDyMGLrRlIQbOmC8yy2y96IhvvrztvrW/m4TjmveJDCOrF32uJbhJ1r3N9j0b98HfsfkYCKepk463UZL0dWH0uPbbScznaz4DM5OZTebSHBCEHUa76i2/8FklpiAIAwKqr1mlFESMWxAEQRAEQRAEQXghkDXIpNegF3ux/3EmCMI86fQTmCAICySrBOdvuPgOmx6m2up7Ob5Hd+OPM9DuG3X6u/t87hWkx6Lj/Oa9pmn1vb3V+QVhUdDOwCEwPjaqrBFiptEu9I8z9kf89EAV/syWPtdc7hWYo/nM++Xzp7/VmwNTOv1rTRAWDe0MPKsKzfE5zDTwhfxxlgWG0CLucSRmaWsa7Hzv1TxHKzh+u+/03RhZKAg9o52BZ3W8pY2GSVePTenkjzNglq4QGBaqwZ8gQcaRZZxzude5jgOfy7BSKcWFRUm3DDwLsxprlnBZBj7bkFXT2OZr4PMtwTuNLwiLjoUauGkEMGKz0wkdUxxmGjMbePpHFDNuVluXZSGZUas2OPcXwN80ZjNjSaevVTtfEBYNCzVwplt/nLXr3c7KGOZzr6BbveidzsIqCIIgCIIgCIIgCIIgCIIgCIIgCIIgCIIgCIIgCMKAMDLy/9JHP2Y00P73AAAAAElFTkSuQmCC;" parent="FMNDqlk5sN2ux17kd3Ov-11" vertex="1">
          <mxGeometry x="300" y="800" width="248" height="154" as="geometry" />
        </mxCell>
        <mxCell id="FMNDqlk5sN2ux17kd3Ov-22" value="" style="shape=image;verticalLabelPosition=bottom;labelBackgroundColor=default;verticalAlign=top;aspect=fixed;imageAspect=0;image=data:image/png,iVBORw0KGgoAAAANSUhEUgAAAXUAAADPCAYAAAF93HH5AAAAAXNSR0IArs4c6QAAAARnQU1BAACxjwv8YQUAAAAJcEhZcwAAFxEAABcRAcom8z8AAEmRSURBVHhe7b15lBzVleeftWrfkAAJus/v19NeftPuP9zd9ml3j6cNxm0Wt9uYxQaEJLSUNoT2DW2AEKAVYRuM7HabNtgYg7HHzbh7Tnt6PDO2z2mMkNCGSrWp9lItUqlKS0m16P7uffFu5ouXEZGRWZlVUsb9nHNPbpGRL977xjdvvHjxIjZYGteOg+b1Y+HUhjHQunkMtD8xGk4/NQo6t42Es8+OgO7tpXB+Vwlc3FMCl/YWw+VvFEHfi4Uw8O0CgH0x0KsZHupXj4f4BmwMuQHfTGyAXs3wULdiArg2IM0W0KsZHk4umwhJG6BbgPDagAvPxuItoFczPFQ/Ngk8NwBb4NSamGcLnHs6Fm8BvZrhoXLxJLA3gLh48A04+5PZ0PXGLOj+eRl0bIrFN6DrqVhcQno1w0PFwuvA3IDaZWOhdklB0j5AnN7qtEDnllhcQno1w0P5/MngbABGWQm0vPQVOLmoMGkfINo2jVASOoOtwBLSqxkePpw7BWgDCNqAus1/CtULipL2AaJ102gY6GqEjo0JCenVDA9HZ18PtAEEtQBRWVactBMTzctjSTaqVzM8HJl1A9AGENwCJ+aUeO7EjY/Fkv4H9GqGh0MP3wi0AYQpofa31kPVwlFQPb8g2UaNf2K9muHh4ENTgTaAYAklduJJ0Ljndt//AdoAvZrh4f0HpgJtwIXqg2oDbCoXjk+SkLkBejXDw/6vTQPegEMzHAl5tYDfBujVDA+/v/cmcG2A3gfCboBejZBXULPehPFbHTdiENzcszG6nKdJvI5xn/M0tlg//pF+JD6N8UvnqVofxScxtmPQOvk9/q204C9R4SlKMf4Rg96/HeN7GAT/kAl9Rt8hfqUfH9fB8HdG6keCCk94rfOqhwsvMCQXgqRDzWnqvEg/XsQgqdDnzfqRYhvGJzCIExj8/iR6YyhYhvEpDLPwvPOZhedCUuEpqLC0HO0jBBeeCs7vMR/BsN8T8pOmdeOg5fGxeJQ0Btq2jIaOJ/EwbyseJT0zErqeGwHndpTChd0l0PN8MVx6oQh6v1UI/S8VwJWXh7nDiWhYMx48N+DpVBswzB1ORP3K8eC7ASlaQK9i+Khdjhli0AZYLTBw+nh8A/Qqho+apRMh5QYYLTDQUR5vAb2K4aNqySQwN6B+WRF0vrkAOl+fBVf6+2Cg+5Q6ouINoMKzhPQqho/KRddB1aOJDejvbPRogVHQsaVUSagfC88S0qsYPk4smAy0ARXzSqBmyTgYONeeLKGNo+HsP92lJNTfXh6XkF7F8HG8bArQBlQsmKBaoK+rJXkfWD8G2nd+TPWWwUBfXEJ6FcPHsTlTQG1A2UTVAkTSTryWu/vcO7FexfBx5JHr4dgcOtiepFqAMPcBtQGrne4+khB1OPEG6FUMH4dn3gC0AUcfmeS0AO8DcwrhSt8l6G2tUAX3slG9iuHjg+k3Am3A4ZnXqRYwN6B6+dR4C9StnODaAGoBvYrh48CDU4E2wA/7f8DcAL2K4WP/16eB2oCHnRZw9gG9E+sW8NsAvYrh4737b4L4BmgJeW6AvRPjBuhVCHkF9xDQgTcFQU1NHUr0aPZ2EXzwTAfidk8YvUcH5ITZ82D3uH1JPxK8XrNTKi24t8sPc8Vm4U1oY833uFBmjxt9bheWeiX4PSEv4I5XalavpqWm5+bnnmXuKSb4PZYa98gRZmdsVrB7s8yC24U3C0K6fQPDawMJXif3yN2tXglCMJQm0Ik1ynXo7KDKOOkcLabNdJ6WUmc62Uz5vxp0gQcxatwCHomp4S94OKnG8OAxsRqIhAf2NBRGda/sdbpYaFQV9RPRyCrq7KLhYVdFj91wQjkandX0bAA6y0/HLXYDbHX6srgBukI0AFU+jQpLNEDEK14dY9Ep5RANYO4B6dKzpyBpD9BFiCZ0dELn89NpANoDCL89wLaggY7jcP4ZZzihuQfoIkQTOjSkwRSeDbAq0QAENUDXO2ugeWUMTq0rUt0qrWtj0N9eoRqA8PoPoI7d7q3OUEjTgnQRogkdl9NIFupc8GoApnZBDBqWF0LjikJoWlkAzasKoGU1NsCaGLSuw1gfgzYM5vTjevAgNgBV/NknnWGc5n+ALkI0oU4RNYyIGyBpDxivevtrH3WGmAb/Bzje3/7EKFcWRBXfudkZghq3oJ1XwZmB4YR6pGgMFzcA0dfZhNEMTXvvhPrN/1l19tcsLEz9H7DBqfiOXR/F/4FR8f8AOpNxmofPGhakixBNnD59p0uQGoA4MX+Caw/oQ8VXzS9K/Se8zvnT5eOAU+j/ZENtaDvmHsANoIsQTdT5iNlOfyw1AFE+b2J8D6AG6DvTCBXziv3/hLkB1jhnjYLS0HgDYBakixBNVEf4LH1CSI8BPzbbOTGkLGj+JOj452fU+2HoO1OHDTDGsiDvBtBFiCZ0FoIGHnMDEEdm0UktZw/gBqh77gtqD6hZ93E1orrq0QnQuOtWdba6aftfqz2gZe+toY4DuAF0EaIJnQKiQdOqAfTY+8MzJsf3APs/wLSgqqVToWHnbaktKOlP2GkAXYRoQuffaMS6qwGMPcD+D/BqgKDjgKAG0EWIJu/d51wu4NkAfDbX1QD+ewBdmRV4JGw1gC5CNHn3npuBrtUIbIAc7QG6CIKQGjrfm/GJ6BCQGjkI+zy0zWf0Y9By5vquSeikJcGXr9iP/DnDG8vv80l6ghqPK8usFK4kfs+sUF6PuTyvk5bzOmtrnvElUpWBHs2rVWgZHhFBn/HlDbz8kFzZYm4EDdvwq/jvY9AFTlQ4MwgaAkLDOwhzgxh7ebtiqCJI5fyaKoJGdPByVC7zAiyCfpMu7GK8ymD+DlUmncmmC1wIOqP9awz+TfPR/i0hCrACCFKQbTlBmN81x0mY4y1ygTnug7C3gW2LrcS0qKsGc/DWVAyueN4405bsz8wN5sqm9zgIHo3Gj3RpGMHL8Lps6+Lf5GvfzMq2K97eBoLsxoQvWcs7ruaRQVel4gVBCKRxzThoon6T9eOg+fGx0LIh0XXbtnk0tG+hfnOMp+whHHzu1Lmq6vxOcxBTMfSY42docjEexPTtAhh4uQCuDPcsacNJw2o6Y5SDin8+oOJfcipeFyF6qPEyYSpenSkKqng9XCNsxQ/3lHrDCV0SZVc89Y/nuuKviiuzh4vaFRPUtWihFZ9Fj9dFiB6qTzyDim/fPEKdDgzLwKn3kipeFyF6qJMRy9Ov+M59n4XT264LZzU7C1XF21ajixA9ah5zzgCdXD4hrYo/8/J/gY6nsdLDePyOIlXptsfrIkSParrKFSs+bcVvGImKHxXO47c7lW57vC5C9FAnnc2K9/H4xpWlcOa1h1TFE1TxV/p6oHV9gXrdsWUEVvxI6H7truSKf65YLWNnNboI0SN+tj+F4jte+Rqc/90+NWkJcfanC+BKfy90vTlbve5+ey6c+3kZXPzdnmTFP+NUup3V6CJEjwpzmIWueMfjnYo/uSAxhr1hWSE0qjHvBdC0qgCaVxdAy5qYa7Bpb9X/1EtDouK3OZVu5/G6CNFDDbHwqHhT8ScfG6kqLUxW01v9a2hbHYOOJ0oTit9aor5v5/G6CNFDjW1ZGFDxpPqlzvj1MFnNZaz0Vqr0J0cl/lyfcird9eeKFa+LED2Ol012BhUZFV9ZNgIq55VAVVkxVD+Klfqtv1OVFiaroUo/s+82PUWSzmqeLFXft9NJXYTo8eE8Gs2VqPjy2aVwZaBfXdFBUb1kPNRv/JiqtDDp5OUqtJenboaOXR9J9NWg1RB2VqOLED1oCJ1Z8cdnlsDlU5UJq3kUK3rjx1WlhcnjqdJbn/pDaN/1MTjz3c+rObUGuhrU9+2sRhchevDgUa74D2c4lW56fNUi5zLJoDyeK/4SVnrTcsxo9AEUXUZJV/F5HUDpIkSPo48kRu1SxR972Kl09vjymYmUMdUBFFX8pcpf66WdA6h4J5m+csOseF2E6EEjds3h0kenl8LllsrEiF2s+IoFzm0TUh1AUcVTpTc8FvNMJ+3+eF2E6MFDpbnijz7kVDp7/IfTE0rndLI6QPGm0j0r3uir0UWIHodm0IR7iYo//MAIVemurGb+RF2N4WhYXgxNdKGYRx5vVrwuQvSgefbMij/0dV3pVlZTPncsNH9npvpzJUjxV3p7oHqRc7RKdzCqWzke2vZ92TOr8bIaXYTocXD6jWqCQ674D742Ei5hpdtZTXkZZjMr/1h5fMOO25TVNO68VeXxTbs/j1bj9Mc3bPgD33TSrnhdhOihLocxKv7gfVTpVa4/V5fV8OUwOp0kgjw+qOJ1EaLHAX3vGK74A/dipTdXuf5cPSte5/Gq0q2+mrAVr4sQPd7XU5DGK/5B51L3dOCsJt2K10WIHupOSXbFW3+uYRSfVPEhugx0EaLHe/dPc25RZVQ8Xe442IontQed7KYBTboI0eP3990Eroq3PH7Qig+wGl2E6PHuvTeBU/H6pmyprMbqq4lXfIoTIV4Vr4sQPf7jnpshUfHJVpOW4oMq3sPjdREEQRCExOWDucC8JR9d3RzmGlW6VDFoOboskteXDfgyyyGDLm7la+cJuo6TG8FsDLpEnO7tSXAl0jWZ5gT+dM0n3fuTLg1n+HpRhiuTZnk310/PP4dBl0PSc7/lvK7rt8tAl6fT5e38SNA1puYyBP8Gv09lz1ZDBsI/yD9mXmtvPhKm+vh9nneAXtsbQ5hKp2XNzwh6nyqaL7YlTKXbkzMETeBglsEui3lRsFelm8JLdReKQcNXIvPGcOHMyucLXrmw9B4TptJN+DPzymqGy+BV6by8WTn2MmYZwlS6uT3menOKXSFUeK9KNx9pNgt6TkEVYe/ahF3pvDwFf2bOuEHQ413OU9dytr0QkzHoPSoL4VUGuyymvRDmb1Bj07qGzF6iQs4tQxCEsLC/mlM/hcH+Q+LpQcg3bW/OJvb/E2FvA/8Z87ZcVdOQeKVlVFD646Fcmm5QRJgZAX1GUzSZFct/VAR/n6Hl+E+SHimL4oMUcx38nHL/P8bg5fgPnbEr3WsbGPZ38/vDjtd8LVRp5obRxpuVzp+ZSjfXQ8tQ8Hc4VWW10R5BGQcvR3DFmY1F37cn6iHsSvebc4bXTQz5kWgquHD86KV0+ozTtSClm+9x5XhVOi/H6zMhpdMRprlHBFU6Ya6P4AZnzHLlFXzgcjXCDS8IgiAIgpp7fc04Z/51inV6MBJP9GMMw+MxkCro1hCbRzv356DgCw74ag++4mPryPjlNs61Ts71Tnz7IL7Eki8spns58cXFfGW3M5+BntOAJ5TQk0rwjB48nYq64aKevcmZOkvPW8Zzl0V9/rIoo+a6p8iG6FHwgxN9aUL0xhX1SaInwfuJngQfQvR684UooW7usErf4GEoRI+Cz6Xo2eX9RV8Q7fn6ogzdzUSNuctU9Bsc0ceFn6v0Jkj0nN5ghE1v9OYLUYJu36MGmWZJ9J5O7xI9xUjofvUOHbdD92u3wzkd53+I8aMvqrjwujsu/hjjjS9CD8VP/lbFJX58E+NHn4GLO2Khcnq9+UKUUBdw0HD2bIk+RXrT+d3/qi6bOv3M5Ow6/a5CGDhdrtZ94VkUfIqcXm++ECXoEgK+fkNdSpBj0Z/Z91klyPjUntnK6XeQ2I+rdZ9/JpYyp9ebL0QJuiMhX4YdF302nd7K6c/s+xslyPat1wXn9KFEbzj99qK4s5/bFkuZ0+vNF6IEXyimbsNpiz4Dp29cMwou7H8N2r/12bjoT3//y3Dx/VehZW2xEvypx0vh4nv/iPF9aN1YDG0bUIgHXoWLv9kFHU/QtLYk+pFw6eCrcPblT4YT/bMo9g4t9qdjwQeyKHi9+UKUUPecRcGr+876iT4Np29Y6cxUePq16XGn73pnjXqvaaUz11vLuiI1b/OVvkvQur4QWtc4Ezv1d1Soefr5IJbofvWucDn9M8VxsXdvjQWfnELB680XogTf5TqU6L2cfhW+XhxT0XPsX5XYckH7qhh0bIjB6Y0xb9EbYu96Kpac01ui15svRAmaRsm8tXtc9EZ6E5TTn1xYCL1tFdDbWgEw0KfEVv9YQcY5vbvLcpSaRpvobytXzk/RsaEg2em3lcTFfvaJWHJOb4leb74QJWhqEzW9CYmeBB8g+sD0ZukY6O9sVGKrXVKQ8YGsq/dm0yg1kzZBqY7ngSyL/ukS3BEcsXduiaXsstSbL0QJmtmE5/MJFL1PelM9NzGRKnPy0cJB994owW8cHRe7SftaY+5+Fv1TKPZ2R+xnNqHYU/Te6M0XosTxssR0Pn6iP/n4n6h70ti0vPjVuOhrloyFPu3sNYsKs9NPvwHFXuWI/RTm7ObJqaQuyydL42KnvD4pp3eJXsQeSRLzV3mLvnyWc+uw3pYKqCgbDRULxkHlwrG4E4yF6kcnQsWcZGevWViUdpcliV4J3iX6MXGxmzjCHwXtm0qhfXMpdGwpgY5NBSh256QSHchSauN1INulRa83X4gS8QnbfERP9/Qg1C0mFkww0pvrXDl91eJxcWevXlCUnNNn4vTrE2Jv5ltU6Jy+85Uvqfdd4AHymec/4p3TW6LXmy9ECZ6h8NgcLXhL9HQvFYLEXj4fndzK6U/MKYHzH7wD5w7+Aq70XlTLVpUVxdObQYl+3Vh1Lxai59Db0HP0F3Dp2C+gZbVzcip+IOs54Cz4jKzefCFKHHnkejUlp5/oj013ThKR2I/Pm+ikNzRVJ4t+Mf4DzIzB8ekx6Dtdr5atnFccvp8+UPQodn1nkHpMlxqXxqAJo2XjOCent3tvgnJ6S/R684UoQfPPqvARPd3GhiCxfzh3YlJOX7GIUp1Cl9gr5hZ79t6wy6tpssOIfnVC7HUo9gYUeuOyGDRvGOc+kDVE35ZK9Ch4Cr35QpSgCZd50uW46LXwSfSHH9Bib0Gxz5nkmdP31B7EOIA5c79atm7rZ6B++63QsMMJutlK465boWnnLdC0C2O3E817dDx/C7RQ7L0FTu39nBMvfA5a9/4NXK5/X63zct170NtwAHobD6Dgi5J7b7z66QPSG735QpQ4ZMwy7iV6um2TEhuJffakpJzedPrysglQMX+CWv7U9+ZC1bKbVHT8bJN6r2rhaKhZOU05Pd3iicbGkNPXLBmlPu9tq4S61VOgft2N0LDuBvVe+/fuhfqlxcEHsqbog9IbQ/R684UokbiDh7foP/iaI3Z1y6xHrkvK6W3R073LiOZ9s+IHsu1vbVDvVcwpVOlN1YJRKPTLqu+e7mlWNd+5kX9vWxXULh2r0xvnNott+/4+fO9NWNGj4PXmC1HCvI+El+g/uN8ZfUhiPzLrOt8DWS+ndx3I6t4b+4xs5bxCqH50nJXTD7LLMkD0nNPrzReiBN04xXXzFHZ6nd7QPfkcsVfB4RmTPQ5kg/vp4weyHqKvXjZVrbtx121Z6r0JEL2V0+vNF6LE+w+g2ClY8JboD9zr5NOXWqrh0PTr0N2v1zn9FMzpMWZPUS7vOP1kJ+bhgasS/nUoeCdOLHCiYuEkFZWL0N2X3qTW3bDrC+EHnGXJ6fXmC1Fi/9edW2Mp0Zsub4j+wP3joPKJO6B6+71Qo+PkDh0778HAx133Qq2Ke6But44990C9iq9C/fNONOx1ovGFu1Uot390clJ6k2un15svRAm6D5yKVKL3yeldvTeu9EanNoPM6XMler35QpR4z7jrZJLobeEb6U1gl2VWcnr32BsSfdJFJIMQvd58IUr8nu/2adzx00/0dnozNKLXTm+IPhs5vd58IUq8y7e3DSN6r/QmjOi18HOe3qQher35giAIgiAIgiAIkYUOjOjuf3xfy2sJuqEe3xvUC7pBH9+nM1Povp9Bv5EKql++hyhD67Rv9DdcmPeyzmvojox8J0dbOHwrzW3qldNA9mtuMF6WbwZOd5r0EtknMbhiSYj0nO5MSdB37PUtVa/cn5mkI/agMlK5+Dk3Pt/w0BS7uT4uP909k+/9yutm6PajqUwkTD2EaQOuW/7MXo9Zf/ybhC12WifdtZPg7brmb/7Id0m2gzfMriB6bQrYrDCCKtdelwm9NivNS6i089EyQY1jkq6zB5VxGYb5PgvXT+ypfpugf0y/m81P1Y/p1ENQG5DY7d8KU5+m2Pl9O8zvXnOYTmZiVkI6FU2C4IpmN+DPqDG93I2/7+dofo1jko7Yg8pIoqTlWOAkEr7NLn2Pn5vr4zKZzm7uzAzvRB9Rr5z7HNNrcwei12HqIagN2Nm9/g3NsrK4+Xu2s1Od8m/wZ6l2akEYUrycXRAEQRCEOJTLcr5HYeeP5utsYOeTNvZnvPy1+ndO+TLXrRl2vQa1A2F+RsHHElQ/5jGA4AHlg36V9Gn9aIudKvaXGFTZs+kNTaqDTzrYo8akdY3BMD8z8XqfG9Y8qGS4Z4J7ZMwDQnpt94WbvVW8LO9MZpjbfB8GvfdbDLMbkn57CgbXB6/PJtUBd5h2sLENg+pbBB8ANbwtHhtT7F5iowonAQSJ3f6evSMwXl16tlBIYHwOgfB6bS4fJDSvz+g97mWyBUWYZbR/2++36H1ajx1cJ2HawYTKQN+3ofJ49RwJiFdjEqYYMxU7veZ1ZCp2eu3lVvybhN3AfgLkbbWdmcXJXXwmYcRu/naQ2L3eZ8K0A0H1aP7j2IjYQzAZg/+K7b9qU+wENYxXGkNwXzOdqbMbir5HjUHrCpPG+O0QhLkj2Q1Mr/3clstHZaC+aRYuO6UdTFAaE1bs9ro5TILagX7L/i4FY5uNcI1gNqKQGjISEbogCIIgCIIgCEIY1JX2a/X0EjSfCoaaRAiDZ87ynhzUPQW0Mw30KBWJexk5d7no5Fu7mHet0zfx6tZ3ruvW9yc1b8F+Qd+NWt1+fU+xugV7D8XeYrhE8UIRXP6Gjm8WQe83C6H3W4XQR/FiIfS/RFEAA9/W8XIBXNlHEQP4jhxsR4r4tBJeYjemiRs2sevbrudC7LoKhCighJ6p2D0m9w8ldoysOfsLmYtdV4EQBWjCoJyJnYQ+aLGXpHb2ILGj0P3ErqtAiAJqZqzhEnvoNEaLPVNn9xG7rgIhCqip4MKKHSMdsZs35sqa2LPo7LoKhChAQr+axa6EPlhnR6F7iV1XgRAF1CSf2RQ7hhI7RloHqB5iV4LP5ABVCd4Su4ez6yoQokB8RttciN1w9kzFnnFvTJDYteB1FQhRQAl9iMXevjEGXd/9K+h+9Q4nXrsdznH88HY4/8MvwvkffREuULxOcbt6vPhjHW98EXre+Fvo+cnfwiWONym+ABf3loYWu64CIQrE5ynPVOwk9DRy9vYtI6C3+t/VzcByxcXnR4cSu64CIQq4JuVnsWvBZ8XZLbG3rY8pMQ50N0PHlmL/NAbjLKUyYdMY6o3Z49xK/tJPbw/VG6OrQIgCSXegyNTZQ4q9bZ0WeleTEnp2+9mL1bovvYVCD9Ebo6tAiAKet1vJVOwh0phWQ+jtm0ucA9SsiV0L/U0SeuquR10FQhRQ9xcaQrG3rrWFnt1+doKEHqafXVeBEAXsm2llRewBacypNY7Qr/SchbaNJYPqelSCdzm7I/Sen6DQOW9XgvfuetRVIEQBrzvH5VTsm/H56phydkpl0upnxwhOYxJCD9PPrqtAiAJ+t0nMWOxrx0L3vz0NF/a/Bk2rSpTYm/HxIr7ufmdV3NnbnrkZeg68Cu3P3azEfuZbfwaXDr6aEPuTI+Dib3bA5YM/gNNbisLl7NsdoV8koXNvTIDYdRUIUYBvgps1sa8ZA70N+5XgGpfGVM7ehI/EpWPvoNBHK7G37/yoeq9j90dVb8zZV+5Ur9s5Z3+iFPrby9V7pzfEQjq7Fvobt7u7Hn3ErqtAiALmbc5Di10L3lPsKPTL9Y7QGx5DoWMKQ4InelDoLRucFKZthyP09l0fUylMJwud05gtCaF3kNBDHaA6/ehK6PEDVC32eL6eELuuAiEK2Pf0d4kdhZ6W2NdMgKbNN0Pf6ZNKcKdfmwWdby6AM/hI9DYdhLNvLVDR/cu16r3uf1kHXW/Phwv/d4/z+mdl0P3zMjj3s7kw0N2i3jv70l9g3j4ihNgdoV/48e3e/eyW2HUVCFFA3do8U7HrNKZuaQnULo5B7QLHuXPB2Zc+qZyd0pjTW2I+Ymeh32H1xniLXVeBEAXi9/H3EjsKPYzYL7z/lhIYc2r3X0L9siJoWFYIDcsLoXGFE00rC1Q0r9KxugBa1sRUnFrrBJ1Qal0fU0MF2h7HWJW88/QefdPH2Q2h8wFqgNh1FQhR4AQJncUeF7yHswfk7F3/cw/0tlVAX1ulElrrN25xH6D6dT3q7sd41yOdVKIeGRouwEMGUOzEwLlT0N9RoeLib3f7pjHEhdfvUDm7ytuTxK5zdgxdBUIUOLFgMgxa7MvHQd3ysVC/erIS2qkXtNDDiN3jpJJL7HoQ2DnM2+kAlXpjqOvRu5/dEfp5Ero+QA0Su64CIQqUk9B9xO5KY0I4e/3aG5TQSOieXY8ZiJ3Hxpz7bwtCnFTSQv/RHR5dj8li11UgRIHy+ZMhO2IfD3VrrldCa9l7q3fXo5fYjRTGS+xxof+chD4qhdgdoZ/70Z0eXY/JYtdVIESB8jIUup/YVQqTWuzn97sPRknovv3saYqdDlBtLh99y0fsWug/vFOlMqnErqtAiALHy6ZAGLFXLhoPFXNLoGJeCVSWOVE1vxjFPgkan/1LaHnpK9D6nXuV0Fjo2RA7C/3Cb/bC2X+6S8WZF/884ewk9LjYR6plWeipxK6rQIgCx+dNAW+xT46LvWLeKDh/9FdKRDZV8wrizl676kb1XvPzt7r62Qcjdup6JLp+tjDeE5M0ECwudkfo3SR0PkD1PIPqiF1XgRAFPiSh+4rdcfa6525VAuo72wJ9nc2uqCwrhtp1/y/Ubf7P0LD1k2o5JXR9gJq22DFMsbPQu/91vRof07HrI9D+7E1xsbvHs2uhv3anZ9ejLXZdBUIU+HDuFEgl9sa9X1ECqlgwDmM8VC4cq6Jq0ViVs597z52jN+/5fFzogxV7s8cJo0uH33T62DeVQvtmJ9RleVuK1Ofdr2F6Ez9A9Re7rgIhChwjoacQewML3eiNMfvZT679T+jof4qO/mdqORK63fWYqdhZ6Of+5XF09I+ho38MHf0PoHVtAQx0NcLAWQx61EGc/YfPenQ9JotdV4EQBY7NuR5Sib3heS10PkDVYrd7Y2pWTFXLNe12hJ4NsTevdIR+9u2F7t6Y1clOT/RW/QraNxZ6dD0mi11XgRAFjs1GoacQe70WunmA6iX2muUJofudVEpX7E2G0PkAVYmdrlTC/J2uVKK+dppdgM6i0rwx3l2PyWLXVSBEgaMk9CCxk9D3aKHrnN3uemz7yRo4/8E7cP7QL9VyjbtuCzyDmo7Ym1Y4Qu9tPAg9R3+hwrxSyXOSJO6NCRI7hq4CIQocfeR6SCX2+t2O0O3eGHb2cwd+oT5nSOjqpBIK3VfsWvCpxN64vECvNQGJ3UxjMhW7rgIhChwhoacQe93uu5XAzANUM405MacUymfG1AklQgmd8vZUYg/h7Cz0zh8+DI2PxdRleXSA6kpjUolddT0mi11XgRAFjsy6AVKJ3SV0l9jdaUzV0mlquYadtzkHqCj0wYq9YZkW+luLnINTj5NKmYpdV4EQBQ6T0H3EroSOUauF7tX1SGIvnz0Sjs8qVGdQCSV0PEBlVx+M2FnoZ340CxrQzRuXoauvKkhL7H6TJOkqEKLA4Zk3QELsN8TFrgSvnb1ulxa6ztltsXfv/5n6nGnY8QV0eHfXoxJ7Bgeo9UsL9VoT9Bz+mXJ3X7FjKLGz4E1nN3J2XQVCFDg0A4VOYsewxc7OXquF7tX1SNHxz89BT91BuFR/SC3X+oNFUL/98yj4W1U07tSx61Zo2nWLE7udaN6j4/lboGUvBj6e2vs5Fa0v4OOuT6t19nc2QG/DAehtPADdv3rWSWNCit3vAFVXgRAFDs24EVKJvXbnV5XY7N6YhNjxgHT+JDg+0zkFnwtodgGaSoOCJknifvZU49ntNMYUu64CIQocepiEHiz2kzscofv1s6tQaQy+h2Lvqf1ALX8Cc/aqZTdh7u4Mtjp/5F+hZsU0qFk5DRqecgaANT7951C7eiq0fuce9bpu7Y1QT7FmiroOlaDZBWgqDa9+9sGIXVeBEAU+IKH7ih2FjhEXukfXY5LY0dl7ag+o5Y/PLFC9MdT1SNAJJc7Z6zb/iXqvfssnVL7e8uKX1WvK11XOvnws9LaecN5bjEI3DlDTFrtPb4yuAiEKfDD9RkgldpfQ/cQeT2NI6AfV8sdnFKiux/IZWuiH/yV+gFq3KSF0OkCNC50PUJeh0PWsAiR0r67HJLEH5eweYtdVIESBgyR0P7GT0DFqtNDNA9Qgsdc8+ddQ99wX0N0nqH72EwtQnDtug9onPhUfG1O97AZnqMByXD8KvXbtH1qjHsdD086/cq5WohkGPLoeB+vsugqEKHDwoamQSuw125382e6NUUL3c3bd9eg1NobFTs5eOa8Ig65Scvra0+l6HKzYdRUIUeDAgyh0EvtD/mKvec4Rul8/e1pijwseRb5wHAxcOqfWTYIP7GfXgg8tdk5jtOBdYscgsesqEKIACT2V2ONCVzl7cj97xmJHofedaVTrrpxXnPFJpYxydgxdBUIUOPCAI/QgsVc/6wjd6wzqYMROl+Wx0CtI6IM4g5qJ2HUVCFHg/QemQSqxV2+/T4nx8MwbMa5HsWOQ0B+ZgmKfgmLHILHPmYxix5g3GcWOQUIvuw7F7sSJBRgLJ6HYMRZhzEdH72xS666YWzzo4QLp5uy6CoQo8P7Xp0FqsTtXDuWKC+X/Fx1+fPwANZTY083ZPcSuq0CIAvtJ6H5iJ6FTzJiKKcw05ezV2++FGh0nd2Ds1LHrXqjl2H0P1FHsuQfqKZ6nx6/iI8ber0IDxQtfhcYX7lZjYujMqd0bExc7Cj1Xzq6rQIgC+782DUKJ3cjZ7X72VOPZ/XN24xpUj67HXItdV4EQBd67H4WeI7EroadzgOoldhR61sWOQWLXVSBEgffuvwkyFbsSeo7Fzq7uK3YUeqZi11UgRIHf30dCN8SOocSOEXyAajk7xuC6HpOn0sjWxRt+YtdVIEQBErqv2FP2xmRb7Iaza7G70pgsi11XgRAF3r3XEXoUxa6rQIgC795zE/iKXacwaYs9IGf3FDsJPWTOnk2x6yoQosC799wMGYudhJ7S2UOKPd3eGBY7Ct1X7FrwfmLXVSBEgf/4Kgk9R2JP19mDDlAzFXuAs+sqEARBEARBEARBEARBEARBEK4eijCo//ZX6tW1RSkGld0rPoFBnMDg55nSrB+JTNb3JQy7fLdjXC18BuNqKk9OeBzjHzGo8q81WOhBDFbobASZ8kkM+/u8zknq1fDzPYy8FzpXOG3sYnrDgJyMPnsDg5b7HAbBr+9SrxLQTkPvm8tyo5pxEYO5D4Pe+y3GSHpDQ789BeOXGPQ5r88kE6F7lZGgcvJvvU5vaHhZCsJvfeZ3TOgzL0F/BcPc3qB6CNsG9Jq+S9+h53+EwfB6GNoOEvfdGLQsBbe/WRfb6I1rnZswWHReouEKo8q7UT+3X3Pl0bJcKfyZl5PS+1yhVNm/dp7G/hjDXp/fbzHpCj2ojPScRUSpRpfzNMnRzfXRc075yCi80r9U5SPSrQf7NS8b9Bmtx6w/+k12cdPReXs/ol45OzLXxTWLubEEVYYpTq/X5vL29028PqP3KE0ibAER5C4sFvu3vdYXlKMz9D1zPSbmOuk7S52nLoKEbr7vR6pl0q2HoDag9ZhittcTRuheaQytl3aeaxbaADvMvdeunCDx0b+DvS6zwmxn8HJjWgcvE9QwTLqOHlRGFhwHO7+f0MP8NkHLeIlksn5Mtx6C2sD+rbD1aYqb3qf12GF+95qC9nZTeAxtFFdW2EpmMZiVTMty5QUdkJmEdSAmHaGnKqOJuayf0An7t73KQiKyj30IWg+9n249+LUBQesxl021Hv6e7ehe5b1moUoxK4yhiuP0Imwlc2PxwQ8fKNFnQWKk73Nu+ikMs6Hs3zYblMlE6F5lJOj5DOdpvCxEkNDpOQuJBOJlHAR9nw9WaX3820w69eDXBgR9j4J2UDtHN3/jQQz6jL9nipvrlI9XlmHQ62uSIIHw3zuRTiVzA9HBLYmJ3YQe6X07mFS9DYz5Wwxvh1fwzkrf4zL7lZF5C4M+t8vCPSv0nrk+gj/brl75w9tJMZvesAhbD6mEPgaDlqFtNNdDmD035vd4Z+a6oNfc65JquwRhyCFh2uIWhLxDhC4IgiAIgiAIQl6Sarip3fWWDcyTGTZ0Iso+uUHLX6sHZUHdpWa9pmoHu0uX+88Jqh+zu1KwCDPcdKiFbpeHoPeoobkf/VoizAmwMO1gf06vuV1oWXP0qGBhVqSJOdzUFnqmJ4P4JAydWPETupeYSQR0dpIb3oTHffBJIyoTYb9m6Myi17Bd/scwwxQRf8c8KcS/zfVhOqxJGKHT56nawcauQ6pvr3UISKoGIEyh03NuUK+hp35CN79nn6o2MX+LMc8amusk+IwvD9ZiwZqv+RQ+L8vCoTOKXi5ouiuL1Bwvbq+PR0ean5mEFXq60HfMneBa/ccbEsJUMIvPy1HN0+1+Qvf6ni1Yxm48WyQkLlOcXq/N5YNE5vWZ/R7tKPbxAn1OZbR/2++3+H2vYMznYaDl7XJRebx2NAGhCvP6a+ThpgQL3ashzcr1E7rX9+y/XcZejtMdO/h37MZNJT4eF2KGCb32+1dieDvt304l9CDo81TtQLBpeI1EtLddMPByLIIamN9noafr6PR6sI5Or811EiR+/s10hE7bav6107Jmuei5XaZUjp4toYdpB65HO7Vj7PIIFlR5qYabmjky59r20FPzMzsPD/rMxPwtypW9HMoUTrpC5x3EvHyNoN/1ym/5+345eraETtAyQe1Az+2d3kRy9BAEDTc1xUf49boQ3Dj2kFGCx0AH9bqQuLmx6PteLkfQvwV9lo7Qie9j0GsepkrPaRvo0Q4uB4kuqNeFSSV0r7CF6dcO9Fvm9zjM79v/qMJVDjWgkB60M5o7nXANQK7u5+SCN/QPKW4uCIIgCIIgCIIgCIIgCIIgCIJwtUJ3j1a3S18zTt0ynaOJYp0R68dB8/qxTjzuRAvHhkSc2jjGFa2bjNjsRNvm0U5scaKd4gl3dDxJMcqJp5w4zbHViTMUT4+MRyfFNiOeGQlnVYxw4lknuiieS0Q3xfbSROwohXNm7CyF8ypK4PyuRFyg2J2Ii3s4iuHi8070cOx14hLFCxRFKi5/w4pvOtGrohB6v+VEH8WL7uh/iaMA+r9dAANmvOzEFYp9sXgAhm56QRDykYbVaOoUQ2zubSHM3TF2H3PXxp5Lc3cZ+3Cauzb2YHNHY/cxd2XshrnrphcEIR+pZ1MfjLlrg/c09w1uc/c2eG3uKQ1em7s2+Fxl7srgtxsG72vuGAHmnjB4NHZt8HFz1wavzF0ZvGPufgbvmblbBh82c9dNLwhCPlK/ajyoGGJzdxm7j7krY8/U3LcGmDtG+Mx98Obuytxtc0dDH7S5G8Yextx10wuCkI/Ur9Smnk1zR0PPirmjoefU3NPqlrlWzT25W0Y3vSAI+UjdyglAkWTuGDk1d8PYh93cMQZt7mjoGZk7GnrWzd0yeDtz100vCEI+UrcCTZ3Cz9xNYx9qc0dj9zV3w9izZu7ZyNyDzN0w9rTM3Tihmg1z100vCEI+UouGTjEk5q4NfsjMHQ099+aujd02d23wjrknjD1n5o6mHrZbRje9IAj5SO1yNHUK09y1sedN5s7m/kQpdGyMQccGJ05T4GuOM5swNutH/bxzCwY/PuHEWY4nneiieMod3VuNeDoG58zY5sT5Z9xx4VkjnovBxe0x6NmNkWVz100vCEI+cnL5RMfUrzFzT2ece/vGQjiz5z9Bb82v4VpjoPG30PP9/w8u7gg2d5ex2+aujZ3NXTe9IAj5yMllE4HD19xtg8+2uWuDj5u7YfCDHefe9jhm3C/+mbZIZKAf+k9XQX/7CejvqPAIej8RA0FxOgdxhh7L8bECoL9XFxrg0ut/DRcoc/ftmvHJ3LXBm5m7bnpBEPKRmqUJU1cxnJm7be5m5p7hOPe29THo/M5ntTWip3c1wemt46FjUwF0UHcMBnXLnH4yEWconiqJR+dWK54ugbMqiuHstkR0UTyD8WzisfvZokQ8VwTntmPw444iOI+P57cXwvkdGDudxwuYlV/YGUNz/1CXGk39rdtVt0zSUEht7srYQ5q7bnpBEPIRMnUOl7ljXPPmjqbeug5NfZ/b1Du2XQcdW0oSfe66331YRsu4Tqjq0TJk7ruK0dSP61Kjqb+Jpv4Mmbo+oWqbOxp6WHPXTS8IQj5S8xgaOsXVaO5o6Bn1uRvm3ro2BmdsU3/6OmjfVJJ8QnU4zR0NPW7uKmtPNnV1MtUeLZOBueumFwQhH6l+bBJQDMrcDYMfcnMPytzR2E+Rqb9smnoztG9NmLr7pOogzR0jK5k7dcvsLIGBjnJdaoCen6Cpb3NMfbBDIXXTC4KQj1QvQVOnMM3dMPYkc7/WRstsGAltT0+Fzle+BGdfuQs6/+EL0PbEWGjbMip349zTMndt7Ka5U5/7DjT1025TV8MgszDOXTe9IAj5SBUaOsXVbe74+bIYNC51omlNKTRvGOc2941o/muLoXlFTEXL6hic2jTWytzp9Sg4tQo/o8Bl2jaPRHMf45j6k/iIGXwbZvftFOtjvuauxrnj56dpdM1TRXBm26hBdssY5s6m7srU71Bj3F0XMVkGH9bcddMLgpCPVD2Kpk5hmrs29qvC3NeMgcZVJdDfXqntDaDz9Ueg8TE0b529k7E34evu/7FZLwFwufp/Q8tKNG4jcz+1vhDad31cL+HQsefj0IrGrE6qronB2Vf/Xn8CMHC+zcnct5QmzJ1Gyjw1EgbOndJLAXT/6O/VhUy+mXu65o6m3r3dbeoX37hdXcSUjStUddMLgpCPVC7Wpm6Yu521e5m7y9iVuScbe1bMHU29YWUp9Nbv1/YGcPq16Spjj3fLYNDrrnfW6CUwsz32DjSRqRt97i3riqB950fhSl+PWuZK3yXo2P0xaF1fED+p2vnKneozgsatqwx+ywjH3MnYlcGPxD+ZhOF2v3aXytxVt4w29rDmrozdNncaConmnmTqW2NO9wyfUM3wZh266QVByEcqF18HiQhj8GjqQQafxcy9kQx+RQnULYzB5dr/0PaG2fX3/h7q5sSgAbNzCjL0enx99u3Fegk0wcNvQ8P8GDQtd6KZHpegyT85Bc38olqGzL116/XQjOug7piWxXRS9b+oz4j+tuMqe2/Fz+hRdcusdrpm+luP6aUAuv7hs9COy5zeOjJcn3uqzJ3GuT/nNvULP75dTT/gOqEaN3eMsOaOoZteEIR8pHIRmjmFYe4uY/cxd2XsKbL3wZh7/dISaNnxF9DXVqFt7SrnSj9c+PcnoGNjweDNnS5ietY29TucOWWoe8Y09gzMXTe9IAj5SAUaOkWyuVvGnkNzr102Bg38U9D68t858dKd0Pbdu2HgfIe2NIDLDQfgUsX/gktV/ydlXK7GoEd+HjZq3M97a/536qj+X3Clp1OXEo8Qfvc8dH33Vuh+9Q5XdH37k3DmqdJw5v5MMZq7Zeqv4zqeJFM3TqpmaO666QVByEcqFqKpU5jmbmTtQ2HuJ+fH4ML7b2n78qb1hc9B/ZIYZvHjVDSuHguNaxLRtNaKdWOhed0YJ9Y70cLxeCJObRgNpzZi0CNGKz5v3WQ80pWpm0Y5sRmDhkLiY7saEjlSTUPQW516orDLR990RsrorN3T3DGUudP0A88kZ+pqRkjqc6cYxHzuuukFQchHTiycDCfY2NMxdzR0X3M3jD0dc+fsnTL3hrU3QH9no7Y0gFPfuAXqHitw9bl7jpah8BvnTsHDIHkoZKpx7moopBPm9ANqbhkyecvUz/23BarP3RzrnvY4d5pXBjN209TPY6Z+dotj6vETqkHmrg3eMfeEsVPophcEIR85sQBNnUKZ++ShM/eAE6pk6vW2qb9wC9QuKchwnHuOzB1NvRVN/bJl6nRCNfRFTNrYXeZOk4ZtGwH9pqn/6A41p7vrhKrL3LWxhzB33fSCIOQj5fMnQzkbe9zgtbFnau7a2NMy92XjoHbpWHwcCyeXjIT6VZO9TT1gtEza5o6GPihz34Smvs4y9Z+XqdEy7ZtHOEMhVdBskPgY1tw9Tf1OdbMO1wnVDM1dN70gCPmIMnWOLJm7nbV7mbtp7NXzi+Dsv+2G3lMndJRDbyvNJ96nLQ2gZe+tcHJxYZauUM2SuW8aDafQ1M3ul4HuFuhvPa7GsZtx8Te7oH19QXLmro3dZe5o6meeRlM3xsKf++Gd6k5MgUMhfczdZewYuukFQchHjpehmVMEmrvRLaMNXpm7y+AnhTR4NHXL4KvnxeD8/uATpWzqqYZCDsrctcF7mrvnzTrQ1Ne6M3U/Lh35KbStsbpltMEnZe40n/tW9wVOytQ3xZzuGXu0jI+5K4P36HPXTS8IQj5yvGwKOBHG3N3G7jL3R9H4543Cz8ZB3da/hIYdt8ajcacRu5xo2nkL1K75Q6hZMg5qlqHZLxqBGXuBiqq5Mah5dCT0nanXlgbQjKZeswhNXZ9MvSrMfcNoaEGjNk296ycz1UVM6qIlCjR96mOnOzCpuWW8Jg6zzZ1u1mGZerdp6kaEz9wT5q6bXhCEfOTDeWjoFIMx9wUTMCbCxYrfagsKR/NL90DlvALM1tHUHx2Dxj7SiQXFcHLpBDT1Br0kLvu8Y+qu0TK5Nnc09GBz16ZeZZj6W3OheSma+eNFGIWJ2FgCalZIa2ZIT3PX88u4TP21O52bY1OfO4Vp7iEzdzZ33fSCIOQjH86dAmTsnuZuGnuAuZfPKoaGF+7W9gPQ21oNVctvhqrHboSqZTdB9fJp7lgxDWowqpdOVl0yFXMKoOt3r8CV3h5XwJUreo1o6nvQ1BeiqXuMlgk0d4ycmTuNdV/tNnW6r6gqf587eva/AmpWSDb2IHOn2+wlmfpdzqRhQUMhMcKYu256QRDyEWXqHJmY+8LJcJxMfe9XtP0AXD5V6XTJLJzg6nO3+9u5z71iTgxN/Qdofpdcga7urBBp3vN5zOCL1InVuLHb5m4Y/JBk7mjqzbapD/QlbQdFz/v/pOaXUUMhnxgL7VsnqeigeBqfY9Dj6W0YW8epR5pQjOl+7UvOdL98QjWT6Qe0ueumFwQhHzk2ZwocM409yNx9umWOzyyBhufdpk7dMicWoKmTuceN3c/cr4OqRWOhasEoqFo4CirLiqFmibv7pckwdRVBE4fl2ty1wdPVqc0r3aZ+9s25auKwlrVFKk6tc6L18VI1DPLUGpoJ8u/00uHorfsdZu6jdbeMczJ1MOaum14QhHzk2JzrwYnMzf1DL1Onrpn5E9wnVFOau5O5Vy0eBzUrpkKfMU69affnoWp+UdJwyJzP5x5o7mPU9L4uU397oZoV0hwlQxEfBrlhlLoT05l9f4PxX534jhOdHN914syLf67Gt7dv1KNm0NA9R8tQaGMPY+666QVByEeOzkZDpzDM3WXsIcz9wxklUL/HberULVNOpm6eUPU1d3wsGwEVswuhYg7GrJjK2s3RL027EqaeZOzDZe7r0NRXxOCSYeqdP57pTPmL71NQJk8362hZW+BxJya6OtVj+gHP/najz32Q5q6bXhCEfIRM3YyEuWOENPdjD3uYOnXNlE3U/e7a2A2DV+auDb58Zgy69/9cf9ubxl23qW6ZlPO5Y/iau23wgzX3tWOhcUWBy9T96Dn6czWnu2f2Hjd4be4pDV6buzZ4T3MP6JbRTS8IQj5y5BE0cwrT2NM092MPl0Ldbrepq64ZNnUOy9jZ3CvKRkPTt+6F9p9uxNgA7W+uh46fb4GBC2f1GrWpzyNTpwuYQswKORSZO5n6cjT1yoSp93zwFpz92Qro+u/rVHRT/HIdnHnlbmheOyLpIiaXsfuYe8rRMkHmro3dNHfd9IIg5CNHZt0ARx6hyNzcj00nU08MaWRTPz5vomPuprEHmDtn7hULxkPV0qnQdybRp96w8zaoIFPX/e6hzR0jZ+ZO0/4uc5t651uL3LfaM0fLJI1zD2nuaOiDNncjc9dNLwhCPqJMnSNDcz+Kpl5rmbrqc2dT53AZu7+5O6Y+LdnU5xbHT6peFeaOpt7gYeoNS2LhxrmTuRvGPlTmrpteEIR85PDMG4DCbe7XJ8zdMHj7hCqb+9EH0dR3GabeQqZOn01yzF2fUPU0d4zysnFQ98wt0Pzyw9C872Fo+vaD0PIPs6H/XOLOR/U7DFO3RstkzdwNgw9l7nTDjqVuUz//u33Q8d274fSrD8LpH2C8+gCcwWj/1mehae3IzDJ3NPZsmrtuekEQ8hE29cGY+xE09TrL1FWf+xwy9cQJVT9z/3B6DLp//7b+tjf1T/81HH8oBifmlKC5GzHPiUqKskRUleEfwHyMBc4jTT1QvVCHel4ENYsw+HGxEyc5HnWi9tFCNeWvGXSzjnoKzMhrF8Tg0ol/16X0p+fw24luGTT0jDL3IHM3jD3J3NHQTXPXTS8IQj5yaMYNQOEyd9PYbXPXxm6a++EHRkDtzq9q+0qY+jE0dfOEapC5l5dNgPK545yYMwoq5o9X0w1ca5z+wXSoWxiDhlUjVDRSrB4BTWtGJYZCDrZbZpDmrpteEIR85NCMG9HUKTI3d09Tn4umPhtNnbpo0NTDmnuiS4ZGzkyEjn9+Di43l8OV/l69doCB82dUf3tfZ3Mi8PXAxS69BKj5V5KW6WyC/q5TxpwyV9Rr9f7ZZnVTDvNm11cG+vB9+iw56DOGvnPx6L9Ay85PQ/3SouQTqmqkDAYPhbTNXRt8rszdMfaEueumFwQhH/ngYTR0CsPcXcYewtwPfX0EnNzhNnXVNcOmzpGBuZ+YPxEz95HQc3K/XjtA08vT4fj0GFQsGKdjvHrd/pM1egmA8x/8dzjxSMyZfmCxEzTOvW7jR53JwhCak6V+08fV9AM1S8aoKX9bvnmX+ozobT0BJ5eOhpNL8E8LH2uXYTyGz5eNws8Sk221ffsuqF1MN8W2+txDmLvL2Adh7ulcxKSbXhCEfOSD6TcCGXvc3OMG75G5Y7jN3TH4Q1/zNvWjj1znmLtp7Oma+/xJUD53LJr6Ab12gOZ9M+H4zALXUEi6gKn9rcf1Emjqh36prk41R8vQVap1m//EbepbPqGm+6UTqjSXe8uLX1afEXT3JXUylW6zp0+o0u326lZQ19AJvRSa+r4vK1NPOVomwNxDZ+7WCVVvg9fmrg1embth8LrpBUHIRw6SqXNkaO4foKnXGKZ+CU1ddc3M0qbOkYm5l02C43PGwqX6I3rtmKl/5xE4PgMzdWMoZDm+7vjpJr0EwIUj/wYnZhckRstgVJKpb/oE9avopQBN/U+heqFj6lVlZOqJi6j6OurURUwnydR5tAyaei2ael/HSb0UQOu+u6F2kTb1oNEyOTR3l7Hb5o6Gbpq7bnpBEPKRgw9NhYMP3QiDMfcP7kdT3H6PtriEqR9BU6fHsBcxBZn7h4+Mgg9nlcJxjPJ5E+DEwinWOHfK6sehkZeoqCgbBZWLJ+u5ZcyY6IyQmVesHquXTEgMhVyKj0vGqTlmVJfMohLfoZAnHy3GzwudW+wtx+x91cT0x7kPk7nrphcEIR9xTJ0jM3M/6GHqqt99Jpq67ndPNvfEOPeU5s5ZO4fZ5x5wEVPyxGGJqFw8HqqX3QBdv/snOP/BOyrqn/oLqFqARx1DfRFTWHNHQ8+0z900d930giDkIwcenAoULnNHQ0/H3A/eh6b+nGnqVaq//TCaevyEajbM3Tb4QZh75cJxaOruqQgSk4Zx5p6huRsGP+SZewhz100vCEI+wqaetrkrY3fM3dPUZ6Gpz5js9LtT1m4Ze27NfXJKc6dRM8rUjTnb45OG2VeoBpn7sM7nnpm566YXBCEfef8BNHOKQZj7gXtHQfWzhqk3V+Jnk+HQQxOVscdjJgVm7xSzEqFOqD5CXTVOqKGQGPSogi5ioqtTKebSMEl6nKhCzS+DoSYPo7HtZsyfoELdrEPdHNsJus1eRdkYqFpyQ/L8Mmjq8ekHtLFf9eaOhp6OueumFwQhH3n/69Pg/Qco0jR3bewUB+4dAxVP3KGtEdSFQmTsl5pOYFTg88zishWu91rCxgnf6G2tcl1EVP/0X6Gplzr97mzsKczdZezK3A1jv0rNXTe9IAj5yH4ydTPY3AMNPjlzP3D/ODi+6i/h/Il3tUVeO1w88Rs4ufFP0dBpxAydRHWfVPU2eDT1FAY/bOauDd7T3DeIqQtCXrP/a9NAhcvYMzf3gw9NhoOYuR+4ZxRm8CNVHKS4zx00DFLF1yhGYJTCIYqvJ+LwA+448mBJIh5y4ijGMYrpGA/TYzE+FsOHM3To58dnGjGrCMo5ZpdC/AbZrn53y9h9zF0Ze5C5X4V97rrpBUHIR+Kmnqa5J4zd29wp/EbLmMEXMDknVJ2TqsEnVDGycUJVnVTVJ1PtE6r5Zu5o6Ka566YXBCEfee/+aUBhG/tVY+6GwedknHuQuceN3YmsmDtGRuaOkS1z100vCEI+8t79N6Gpc6Rh7oaxJ5k7Gnp2zD3LQyGDzD3Di5jI2LNu7obB5yJz100vCEI+8vv7bgKK9yi0sQ+JuStjHyZzD+qWyYW5G8aeZO5B3TI5Mnfd9IIg5CO/v9cx9bi5D3XmHmTuprFH2dy1sWfL3HXTC4KQj7yLpk7hb+45yty1sefS3F3GPpzmro3dy9xdxj5E5q6bXhCEfOTde26Gd+9xjN3T3EMYfNzclcFrcw80+BycUDXMXRl83NwxsmHuyuANc9cGr8zdZfBDMM7dNvg0zV03vSAI+ch/KFM3IqS5u4zdNveA0TJZMXfT2APM3Z2558jc0dAHY+7K2IPMPQeZu256QRAEQRAEQRAEQRAEQRAEQRAEQRAEQRAEQRAEQRAEQRAy424MGpdLsZjeEHJOKcYJDK73MHER4xMYDK/Dfn84KMKY6jyNM9TlozLch/EWhllvv8WYjTESQ/DHqw2Fa5CbMJoxSPi/xKCd4HYMIbeYpp5pfV8Npk5G8D2M4dSNmZRsx/gIhsmnMN7A4GVE326uhjYUsoRtLGzwV0Pml++IqQ8e87fDHGGyvsW83Iip5wl+O8QnMei9LoxJ9IYHvHPQMnMwaHmvuAvDzKLs8NoRg5bn2IbBmNsRFLbxmTu4V3gZpfmnx0c1XhHGYHJt6unWIxGmLs1t8/sNXiaofKQzv/qn5cPUCf/+rzAG27UyGD1kez/gfZC2a6t+bodXHZnl8dp3vTSXqg2JGzHMIx07vOpGGAaCdojHMfw+I8wdwMvAWJQU/0hvWJjmaIoh1U5q/m6qnd5c1jYv/p0w4je3L9V2+22XF+ZvhA37N/1MM9N65Hb3ajM/grK8VOXzqn8v4/GDy+vVFumQKz1kuh+Y3/Nab6rypGPqRFAbptISka12EAaBKZpUESRGP/H4iZUJu+P+AcZfYXwFg4yZd6Cg75kC9RJi2N/mOjK3MdOdxot0lvWD15HqTyRsPZplMmM3xucwvEjX1IOWT5dM/oRswrZDJnrIdD/g3woy0mzq069N/PTgF36/K+QYbnhqhCARm8vZ/8C5FjMHjWJ4AoNGLnwa448xgsrOWUWQyeVyJw67biKdZf3gddjbO9h6ZP4fjBkYdleTqYfhNPVUOvPCzjxzqYfB7gdXk6kPtq2EHGE2XphDJdMczEbNhZjDCIgzM7/y0Pthtmuwh9vp7jReZGOH4XWY9ZxpPYbRhpfZpGvqRFD9p1svpkap79oPKidvdzrlIcwypaOHTPYDwtwmr7ZIVR6/3+PttH8vqA3NuvkjesMDXiboT0jIESzqdCqfG8wUylCI2SuWYtjGYwo1VZiH6VxGr+UovMqearvTMSRz2XTC3AZeh13WTOqRMHduv/DSjvknQcFl9CsfEVT/froJIowOaL1+xp8LPfDnftuTaj/4NYbfCUq/dQbVwwoMP336tSGRqm4ovP58BEEQBIRNXTJfQRCEPEBMXRAEIY8QUxcEQRAEQRAEQRAEQRCEaEJD5DKZCjVoKNzVRND43jDQMDK/4XCMOURNho0NHZkMOU2l10z3B4bmYCHNmMMLg75LffNX+z4kXCOYRpTJVKj5buq8falOhPH4YJkWeejxG0OeCYPdH8xx4jTNgznn+Wcw+DOv6RL4pKskBEJGmCYXRkSmWE0h57Op87alytBtU0l1IYuQXbJh6tnYH8JoLNUyYuxCxnBGMtihWEGmbgrfK4K+k8mVoLRD+P2eecVfmB0/7J+Anxnwzhn0h2Buq0yLnBxhjS0bpp6t/SEV5rZ7/eGH1Z0gJMGXGg82I/Azdd5JwpizWYZMTT3V75kmF2ZnCWPKRJAZcB37GYVpiF7twGWg8Dpc9zOIVAZl/m6qujCXvRqnRSbM3wkb9u9ma38IIqwGud1z/Qcj5BksYi+zSAcvU/czXhsv4+QdOh1TD/N76WZAvAMG1Y9puqkiyJT9tjWVuYWt53yeFplId3kvsrU/eGGauf3H6EW6f2qCoMhEOF4ZIO9QUTN1Lmeq9ZnL2Vlgqm1N1UZ+223/2eTztMhEust7kaquvfDaHxhTb7TOoFkpbTIpiyAozJ0/06lQeYey32fBh9lxvQ7N/QTN66Uwd+BUv+f3PT+8zIgxd9gwh+tmPZu/ncrcUtWFl5mFMThuS7/y0PthtmuwbRzme2HaKt3l/cjG/mBqg7bPbwrcILgc0v0iZIxpeH5B4vUSOu9QXsZjmoRXhDFuO4KmJA36vR9gpJOpmzunvTzv0OnsdLxN5janMjf+3K+e/MzMNCevyKdpkQlz+XTC7ygs0/0h3XJ4/X6Q7gRBGCS8k/qZjyBkG/5DCXOkJAhCBrCxy6GwkGv4CEsMXRCGAOpykYxdyBVk6H7dbIIgCIIgCIIgCIIgCIIgCIIgCIIgCIIgCIIgCIIgCMLVRCz2/wMd3Hqc66FQlgAAAABJRU5ErkJggg==;" parent="FMNDqlk5sN2ux17kd3Ov-11" vertex="1">
          <mxGeometry x="130" y="140" width="252.27" height="140" as="geometry" />
        </mxCell>
        <mxCell id="FMNDqlk5sN2ux17kd3Ov-23" value="" style="shape=image;verticalLabelPosition=bottom;labelBackgroundColor=default;verticalAlign=top;aspect=fixed;imageAspect=0;image=data:image/png,iVBORw0KGgoAAAANSUhEUgAAALcAAAB8CAYAAAFcRhF+AAAAAXNSR0IArs4c6QAAAARnQU1BAACxjwv8YQUAAAAJcEhZcwAAFxEAABcRAcom8z8AABQaSURBVHhe7Z1rjCRXdcfb7HZVz64XYhbb2HFCkLAUyVGEZIwSFMlIYBweIsbe8XRX9czszu4atJhYEU4kf8AG4Q98DU4QkXh8gQhhLBQpGCQ++EMix+D17HRX9/Ru76z3vfb6CQL2vXTO/849vafvVPX0e/pxftLRrbp16z5Onbp1761bt1IbzrGdfi3KeY/Y3d5R3XX9jXaz9xyam/pTu9l7OPIoSM8aD+LQrF+2m92xPLttO1xEXspt/nAxt/lvl/JbbzIHuyUK/a/azTrP70i9G24p8P7JeHTKy/N+zW6u4ShZkd3snKOUQDHwnohmMn8mxR6eEFiPzfT5Xeu2zSHrnrEus8+60ySInBO/z7qbSLq/wMrgiAL/wslddEPlPL6I3ZF0J67M9eDWH1jk5SC9uxD4e6meeaznkRfoOXpqIVOLAu+7XUeO+jpJLVWK/MhcF/U56uukyA/O+rWze7rMPSKvS+BfPE4JFnL+nhfCqdtskAkAOuzexNYhY10XmTBve9bF/g2rm8ogeM3eUFQ1PGo8iEp+1e/NvatuIevtgDsULIdbbkEdhtoALqocuNKP3cPW/0iTFuJAIO3evxz6e5KqtiRQAJy7Muvdb70GC57Ux0mQ8Up26laqMhet/B+OFwP/GyagA64Azn3joQ3SPGXwfIlEapz7TdS1vLKY9e9Z9fPetq5pvCLjOJfM5jz2N4Sz+268vlVTKWbTC3Bh58ZjI0EPtV0bH56Mh1N3wW1VhiLjDIZL4MohE7LjC3BxI8LtWZNbGVK4Gw0eI+HuNC7/udXNBp4mYRuGC5FdavYDrWx3jMw44IzfS8JtQwmPCwBuL6K9iTqc45KZknbP29w+TWqndsX3SGKfjIrSBHqcPwiX297Lti0OqI3yL3C77gT3AzRT4fLDBo0ouICHeHsyGtsrMGyMRzh3EtzOA4Q7F+x3YEcfh/dbBRmxmy2Btkoxu/Vmuzt40HuBeUDT1qslkHFqw+9l09owOtF4u83gnoJuF25E2C32qe+5RDfkSySLJgBRnfWLdrMOMo7uHt/EG4bUuHy/88bejOmPYpuqxivUpH0c2xuuccrweVR5rHHAGT8w438UrulIB95T2KYq8RRca+PmXOxvGHEaj2Y2fwTvAl+mehsZpYfTXx/M+xdxDPuLO/r4KrVVWr05UZfDRcar4bvfaTw3AgyQ44nIGWrGkdnMn9vNVRsP/K91/cK0W0auOkSDCW0PeXO2AjKOe2HD2y3QODLTqlTmt9y5oRpnDlBmkBHzGCcXr1vgkh1fMK7ZTn8NLjQN1546HIxcs1ZRRhgMzuBmYgEYkWrlZaLLB607UOTbS4xGIeM8pCYzi20M0cH9LcmtdptnubALAbyN+FlJgM/DSFlXcMY5YmSct9kF2EbGAbZlZljjPyKBHzLFx1AgOQYJf5aucN8XI+PfWd1siBzbMuM8xgiXM36HdTG+yOfylQBym92+0NfI+8VIZlpRlAnDzC4Xw4p4beoOeqGpj36K3TUgjOx/45WqNv8TeCk7dSv3SDGHOgr9PbxfCr3H0RnkfYjpFAb+RemHMOVc+qsizG50FHkfadjkJhsoA8MEpdzUh+s9615LOHUX0sC2TXaywEASqg4IrBADSv1UBi4q0kBanO5Qvv0bBGzh/Vb4RFv4ypz3CB6GkFKYeRyD1P1WONIoBZknOF3kwR6eLCoL27dJ6ytNp66v5NM7MXGxiqom5/1HKUzPl/Lp0JxA4AF4glolqBqsV1PYwvdP3/Au6zW5nJrdtj3pdjfD0eJLO1AMvBeWst4Piln/Hn4NWQ2nbjuzO1MrZ9N3/Go2tX059C9R0xIjBQZWeHUYXpZtBEfmTLPOSCn0LyQ9NF2FY2o6NRmrdF6ZFHocU2GoORiVcumvRzkfg2YGvEp1FY40kBanizzYw5NFswfa63uNwnfb3QZIoZ956/PXqhSy+C9V8v6lcug9T8eOFgIPU9wMzdKYCN600y0gqBZ60Sy89HAGPc2zuCuo7r9kvQ1s4TxVA4I82MOTxSCsb+It/PC8dx/GOiDl0F8wH6b0WeEmjZy/h9NFHuzhyQIrFgzKwjd0ouCwgG/MUO/KqaG8DUGHBX68z2Hi/BCW9xGHDIPv0oZiSumwgc4MtTJ0eHZQoK1dDjwss2Ag5T/KU9AZtL/501AGYSismZYO6EI9MLEDVIqiKMrQgm8D3flCDOYB4cHVl+8BY8Cco/qg1bgSp3B80MkzwaB0VjgmbfE0Np7WFgf7YzLXL1c3DeyPNHkil0QqHOfKj0hl2tIIZDiZH/jL8BJ3f6C4CncnVLIgDFxp7diPg/1dpbnh/4EEfuwvFQ4FS2t3Fc4gvwgnjUSS5L9hNKtSgLRwOREUhZAFl7B/ksL57mB5jgSwP+4KKF+GyZHwBcA+wwoHrrEwblxPkowEuDhcOChTVheKoiiKoijKZBMFfvSGM+b99kOZWhR6P7e7q5N9Fvxaafrad9lR6P8M4eyuwUytCP2S3VVcSoH/a0xbs7uG0wsZTNr5qd2NfetOx59BOLtrwDQI8n/R7iouquwBAAVCSNlL7pcNJ3dB2d4veB/f55vpDWLJQaounkU43ofgPSgpu8D7NqnJhurpP/Jb9EMJb93h7/rJN/jrnYdtUnyD5U8k9i37RVQLfRM7SdMmOblYZfdVEYNIYyiJAu8kf0Nj69XaIJSNdBrStSs/jTXFvH8PJvBcE0yKH4CyTTrX0l2mfNjDkwMUMQhl9zuNkUCV3UeiIDPLX4VBVm/vgVQjl2W6US4zZw+PL8XAO8NfE5iJlM4Dko7/D+3z+v9mMUksLFmZ8f/CBjFU5/yolPf/3u42heIwD0iZLtXbr9jDkwMp4Rwpo67sUpjO4VM/UsZTpqeI37IF6Z37p1P1z/Yqee+VMimvEKQD69UUKFumMbEkKYJu9QfQRLO7dQ5kN3+xHHor1Jq4KpVdnfUrmBFbyno7ziz4+623QZVtaUfZ+x9KpX/3hdUBJ0yOZ2VHof+75dBbfG4+lYnCzfvcQamJVXYxMAv7ovBGkjo1ccomBV9Zym0yk3Cg7KUgPYPt1/Zk6l8lHJhP/clZ2sc2I9K5lm7gF+zh8YWssADlsrSqbOoMPVyZpbChX6TwUZmqDKrXTx2Y2fRRKBdjIAi3jrJlumtWbh57oAgU3u7WcZV9JJu6GWsWQ6iquAsPz2LO+0oxSN1AD8s/kETVL6V86oZ/WauRBJKVnc42+9D0tb1UZ1Orxe6iKXiIHpCXS9l07tUYy1ZlE3Q7NzT9uqUw438MCxLYXcPEKpvq2aadmk6gOAsUzxXqEL35Fl4QUxVkDxmgbKQj0y1PQqemFGbm8fkdCynici+srhqm3nkw77/f7jZglE3pyHSRD3t4coAieqHsZgwijZFAld1HqIn2Mf7oH0JKGNjLA5kuda4+bg+PL/QwO4lPpFl68YBcD6NsSqch3Ul4LeYCRQxC2f1OYySwimhYXrTXAkWrsglSQkeTdOS+TtJpg2jn6mQaeogtYTxETrDh6Wd1v3DKjIvItWJJkWb6WT0MCeIh/4LZp/htUgpDytaJlYNClT1AqP6OnQxfyvvP2l0zGf60Mxmejv+3ToZXFEVRFEVRFKUd0IGIE7kaDsAyQu0u6oJVbtx4WgV5GFuwtlJ9WX0HubTQoJhYZaPgULhUNiwd/hCsvxRnwdKyOSwLr1HFy9yxABk3wO9XZBi5hNLTJOwv8y/Dy7zJ9DZs4a4kZfNScVLZvEgXgwK0omx3ybhmK5XJ+OW2TNtdr4r95YJdIMm/m2quK+KUjcxwYaSy3UUQkzIt/aXCZKHhD8FqaEnL2mFxcw7HApJWWktaS1DeMSxJd3NfiVO2mzHOHJQtLaobZQNYK/4CgjBueLZkd+k70K6yk/wHTrM6GzSrRlCITpSNOGWaMg0O71Y1vF4fSFK2ezGlvzQS12gGRjvKBp08IBmpDPcB6T44YdHyOPIAFyQpG8hzpOLjHsgjBQrNS3kqPQZ3AawCVufWqUof+BAJlIz6NHbGqaIoiqIoiqIoiqKMJFHo//jYTr9yfJdfwZ/NrXcDWInp1K5M5QSFKYfeU9a7Afw7FNPPD8/6lSjwC6XpLe+1hxqIAu+biAfxJX2qiW/AjlGYlylfFBdeOilK+2DWOL5jwMxxMrz6L0UlUc57BDPE7Qfi9dnkEvt1z3kzuxxf+YgZ5hLMNkc8ZmZ6cO1XpBJ8XIgZ6PZ7O52FrnSGGrcytpBxvyCM+zPWu4Eo5+87Q8Z4isJQk+En1ruBU7Pbtkvjru64/kZ7qAE6/8eIB/GVcv7D1rsBMu5PsXFT+F9Zb0VZy3N3pzYXA+/fD895f6CaEB8f14WM+yr5oYbEt1EX5TER5hIZmQlDciUhjPmUvi7O8Xo4Oh/HTXyr6ymsDUf5EPFclcfI73yVylEMvW+hXLaIyqSCj//IYC7wR9gk9QXqRkmQb+Qf5aD9i/JjRmVCORZuuYWMod5kWExoMgw7y07T55Bd1lMZczCkRxf91/QYXyPUBDhA7lUsowGjSOrsDTvcabXl+COVaUmWkwV6oOM6hDguRKF3GmsKoGPoil2yhB/nI2/c3LzijrAr0EMp8DCHVBl3XsnfvJWM4Rw/zkfduLkclc9u32YPKZNKq2PQw864lEPpIbX592WoTT5WNTe1rc8v3XPzVntIGWeozf3q25/PmDd/rpxcWB1XHrc2N8oVV17ogdrcr9nTlFGnGHr/dmTO/yld9BjxfkHulaTRklLe/8DKvF/Donf4eQsEf194mfwgMBj2x88CTuzK1JYeTP+VPb2BpRnvfvw6mjt2UT7ds9/OsXHbcly15VpTXuihTPqwpynjTCdt1Sjn33uUDBuGmjTnxKWY8/8Lv5Wi8K9SM+gKRjOS/lr3/btTmYPz3l+u5Lzbn3gi9Q7rDa6z7hq0za2soTPj9h5ArQ0DxS8XrXcsqMWrc/7vUdtHuU33VoL0nTgX80Nc416dhOXX8BOkonm17h1dDv3f4yZaztPTg5oU1MT6oQ3egBr3hIL51Cfo4sMAXKnMb7kTxtAP417Kpp+EQS6H3vHl2dR2+C3OeJ/ETwJd46ZO4ENo4uAYbgLrbajVUtdRmifR9CGDl2se1EFZhHFfxNLkblkh0AP0YU9TRh2q7Y6e3t24uD+LWZu+zQ7lesa9kt96E8VZfX1vplbIet+GX2k65WEyE2YXsnEv5dJz+A0pHb6O8vh9a7xn8Cod5zD4WSP+WdKKcXOHEuWKKy/0QO3xY/Y0ZdQpzW9572H7Q4Y1QjUcjBoXvlfGvRR4j56h5gWaEjBkhGMxNTMZHwRp/ma1Zv9cMZt+EDU34i2E3mdtVAbU3KU2a275Mwkp0AP0YU9TxhnHKFo27msdyuZtbpfFXOZuGPAJMn66CRo6o1R7//MrVLOa9jna3FTDlkP/IkZXqDa+ArdF49Y2t9KZURTCqdtK1F4u5dNhOci8z3q3BL6f5HNfSjj3+R2pqZWd3u2Yjov9Wir1Drqh3kJHM8r5/2oCOahxTyhU232TmgPPUO23Rqh58Cy5iePcg6QYphfKgTe9mPNu3z+detf+XOo9lL9PUO29bAw79F5fyadussEbYOPmcW4q88/dskKgBzoW+yGzMoLQxTw7Cm8oo3DTJ6p5/5lynjqVlCe02ak9fvYg+e3Pbf47GywWNm59Q6nU0bklytgyLm1VbXMra9D53MpIU7Rf4uDFiSsYe0YbdRja3N3gtrlRrrjymglb+iXO+FAM/J8cmfdfpIseJwVqo47fN5QoV0x5oYcy6cOepowzy87X70kL5gw77sI/B/Trd8WsW0LGwI9zjDTASEZNkG/k3zavdN0Spb7i1LcOz3nnyDgaF7oxk/7rRo8VoBqO2zCXOQztYwWotWHsgjlC1oSxci290L8ccxzpXaqHcdIjvwtVKge1qb+tK04pTSGD6clage6COUkL/9D5ulagMhioZtRVXpXxRI1bGVvIEJ8+Nu8fPLHTP4gJTNa7gSiXmTu9K2PCJH14a/6sEPoFMu6D5BZf/NyWW+yhBqLQewrxID66sXZa7waKgf/x4xTmKOWL4tIhPUVRFEVRFEVRFEVRFEVRlMFxH0mtTdlH0oxbSTA3+ZckGXj0Cc77evnpJZtIdpA8afaUkcMjOUTyW5Ib4NEG8mbpt3FvBB8kQdli1ylRhp9OjBs12ndIcOH3kDSruRH2ERK+CZ4jeT9JuzVxXPjHSOCHdf3+huRndh/yDRKk44I1+r5HwuEg+PnSp0gYWT4prpF/iMSN639JdpG4uugkrwBp/IhExi/z6oLyIS1cEz7nP0mS4h9r2jVurs3YmJs1S9ggz5HcDQ8CypcXqxfGDYHhcfowHr64vKClNNh/JJF5hQEhPPJ5BzwsSTU3+8tyMUibj8m42skrYL3CX+aX43evF19HHEMzisOj3DmSuHPGnnaMmy+QNLAk416vLR4XVzOaGXdcs4HD8zFp3Hh6fIBkPVptlmDRTITFsm7yxpXG2mleZRxJcHj3hpIMqm80VLRi3KyYOOUlKW09w4gz1mY0M+64OFyDYdwmgRRZ44GkMnCZ+TzoBY9+NNFw08QZZjt5bfdpKmvt9WSiau9WFMnKb0U4nkHW3O0Ydxzy0S3zG2fcrK+kWlIaWqfG3WnN3Wr4iaHdWsKlmRHzRZOG0I82d7sGg7zKDhbyxMekIbNxy7LJeBBW+vMNwtJpXoF8Osg2N/cP4C8NWd5UbvmS2vVjTz+NG+Cix42WbFTNHTeakDTCAT5NwmFlGZuNYsTdFJ3kFfRqtMTt+CpdwEYfd9Os92hXlKGHh63iRA1bURRFURRFURRFURRFURRFUZQhJpX6f6IEFKVheY4uAAAAAElFTkSuQmCC;" parent="FMNDqlk5sN2ux17kd3Ov-11" vertex="1">
          <mxGeometry x="332.5" y="210" width="183" height="124" as="geometry" />
        </mxCell>
        <mxCell id="FMNDqlk5sN2ux17kd3Ov-24" value="" style="endArrow=classic;startArrow=classic;html=1;rounded=0;entryX=0.467;entryY=0.375;entryDx=0;entryDy=0;entryPerimeter=0;" parent="FMNDqlk5sN2ux17kd3Ov-11" target="FMNDqlk5sN2ux17kd3Ov-14" edge="1">
          <mxGeometry width="50" height="50" relative="1" as="geometry">
            <mxPoint x="320" y="670" as="sourcePoint" />
            <mxPoint x="200" y="470" as="targetPoint" />
          </mxGeometry>
        </mxCell>
        <mxCell id="FMNDqlk5sN2ux17kd3Ov-25" value="&lt;b&gt;&lt;font style=&quot;font-size: 14px;&quot;&gt;Ptc-Priv-DB-SG&lt;/font&gt;&lt;/b&gt;" style="swimlane;fontStyle=0;childLayout=stackLayout;horizontal=1;startSize=30;horizontalStack=0;resizeParent=1;resizeParentMax=0;resizeLast=0;collapsible=1;marginBottom=0;whiteSpace=wrap;html=1;" parent="FMNDqlk5sN2ux17kd3Ov-11" vertex="1">
          <mxGeometry x="480" y="610" width="300" height="90" as="geometry" />
        </mxCell>
        <mxCell id="FMNDqlk5sN2ux17kd3Ov-26" value="Inbound - PostgreSQL (5432) from Ptc-Pub-App-SG" style="text;strokeColor=none;fillColor=none;align=left;verticalAlign=middle;spacingLeft=4;spacingRight=4;overflow=hidden;points=[[0,0.5],[1,0.5]];portConstraint=eastwest;rotatable=0;whiteSpace=wrap;html=1;" parent="FMNDqlk5sN2ux17kd3Ov-25" vertex="1">
          <mxGeometry y="30" width="300" height="30" as="geometry" />
        </mxCell>
        <mxCell id="FMNDqlk5sN2ux17kd3Ov-27" value="Outbound- All" style="text;strokeColor=none;fillColor=none;align=left;verticalAlign=middle;spacingLeft=4;spacingRight=4;overflow=hidden;points=[[0,0.5],[1,0.5]];portConstraint=eastwest;rotatable=0;whiteSpace=wrap;html=1;" parent="FMNDqlk5sN2ux17kd3Ov-25" vertex="1">
          <mxGeometry y="60" width="300" height="30" as="geometry" />
        </mxCell>
        <mxCell id="CPUSE-XaOg5NPm4l8oKs-1" value="Ptc-Pub-App-SG" style="shape=table;startSize=30;container=1;collapsible=0;childLayout=tableLayout;fixedRows=1;rowLines=0;fontStyle=0;strokeColor=default;fontSize=16;" vertex="1" parent="FMNDqlk5sN2ux17kd3Ov-11">
          <mxGeometry x="520" y="160" width="350" height="180" as="geometry" />
        </mxCell>
        <mxCell id="CPUSE-XaOg5NPm4l8oKs-2" value="" style="shape=tableRow;horizontal=0;startSize=0;swimlaneHead=0;swimlaneBody=0;top=0;left=0;bottom=0;right=0;collapsible=0;dropTarget=0;fillColor=none;points=[[0,0.5],[1,0.5]];portConstraint=eastwest;strokeColor=inherit;fontSize=16;" vertex="1" parent="CPUSE-XaOg5NPm4l8oKs-1">
          <mxGeometry y="30" width="350" height="20" as="geometry" />
        </mxCell>
        <mxCell id="CPUSE-XaOg5NPm4l8oKs-3" value="inbound" style="shape=partialRectangle;html=1;whiteSpace=wrap;connectable=0;fillColor=none;top=0;left=0;bottom=0;right=0;overflow=hidden;pointerEvents=1;strokeColor=inherit;fontSize=16;" vertex="1" parent="CPUSE-XaOg5NPm4l8oKs-2">
          <mxGeometry width="77" height="20" as="geometry">
            <mxRectangle width="77" height="20" as="alternateBounds" />
          </mxGeometry>
        </mxCell>
        <mxCell id="CPUSE-XaOg5NPm4l8oKs-4" value="HTTP (80)&amp;nbsp;: 0.0.0.0/0" style="shape=partialRectangle;html=1;whiteSpace=wrap;connectable=0;fillColor=none;top=0;left=0;bottom=0;right=0;align=left;spacingLeft=6;overflow=hidden;strokeColor=inherit;fontSize=16;" vertex="1" parent="CPUSE-XaOg5NPm4l8oKs-2">
          <mxGeometry x="77" width="273" height="20" as="geometry">
            <mxRectangle width="273" height="20" as="alternateBounds" />
          </mxGeometry>
        </mxCell>
        <mxCell id="CPUSE-XaOg5NPm4l8oKs-5" value="" style="shape=tableRow;horizontal=0;startSize=0;swimlaneHead=0;swimlaneBody=0;top=0;left=0;bottom=0;right=0;collapsible=0;dropTarget=0;fillColor=none;points=[[0,0.5],[1,0.5]];portConstraint=eastwest;strokeColor=inherit;fontSize=16;" vertex="1" parent="CPUSE-XaOg5NPm4l8oKs-1">
          <mxGeometry y="50" width="350" height="40" as="geometry" />
        </mxCell>
        <mxCell id="CPUSE-XaOg5NPm4l8oKs-6" value="" style="shape=partialRectangle;html=1;whiteSpace=wrap;connectable=0;fillColor=none;top=0;left=0;bottom=0;right=0;overflow=hidden;strokeColor=inherit;fontSize=16;" vertex="1" parent="CPUSE-XaOg5NPm4l8oKs-5">
          <mxGeometry width="77" height="40" as="geometry">
            <mxRectangle width="77" height="40" as="alternateBounds" />
          </mxGeometry>
        </mxCell>
        <mxCell id="CPUSE-XaOg5NPm4l8oKs-7" value="HTTPS (443)&amp;nbsp;: 0.0.0.0/0" style="shape=partialRectangle;html=1;whiteSpace=wrap;connectable=0;fillColor=none;top=0;left=0;bottom=0;right=0;align=left;spacingLeft=6;overflow=hidden;strokeColor=inherit;fontSize=16;" vertex="1" parent="CPUSE-XaOg5NPm4l8oKs-5">
          <mxGeometry x="77" width="273" height="40" as="geometry">
            <mxRectangle width="273" height="40" as="alternateBounds" />
          </mxGeometry>
        </mxCell>
        <mxCell id="CPUSE-XaOg5NPm4l8oKs-8" value="" style="shape=tableRow;horizontal=0;startSize=0;swimlaneHead=0;swimlaneBody=0;top=0;left=0;bottom=0;right=0;collapsible=0;dropTarget=0;fillColor=none;points=[[0,0.5],[1,0.5]];portConstraint=eastwest;strokeColor=inherit;fontSize=16;" vertex="1" parent="CPUSE-XaOg5NPm4l8oKs-1">
          <mxGeometry y="90" width="350" height="40" as="geometry" />
        </mxCell>
        <mxCell id="CPUSE-XaOg5NPm4l8oKs-9" value="" style="shape=partialRectangle;html=1;whiteSpace=wrap;connectable=0;fillColor=none;top=0;left=0;bottom=0;right=0;overflow=hidden;strokeColor=inherit;fontSize=16;" vertex="1" parent="CPUSE-XaOg5NPm4l8oKs-8">
          <mxGeometry width="77" height="40" as="geometry">
            <mxRectangle width="77" height="40" as="alternateBounds" />
          </mxGeometry>
        </mxCell>
        <mxCell id="CPUSE-XaOg5NPm4l8oKs-10" value="PostgreSQL (5432): Ptc-Priv-DB-SG" style="shape=partialRectangle;html=1;whiteSpace=wrap;connectable=0;fillColor=none;top=0;left=0;bottom=0;right=0;align=left;spacingLeft=6;overflow=hidden;strokeColor=inherit;fontSize=16;" vertex="1" parent="CPUSE-XaOg5NPm4l8oKs-8">
          <mxGeometry x="77" width="273" height="40" as="geometry">
            <mxRectangle width="273" height="40" as="alternateBounds" />
          </mxGeometry>
        </mxCell>
        <mxCell id="CPUSE-XaOg5NPm4l8oKs-11" value="Outbound" style="shape=partialRectangle;html=1;whiteSpace=wrap;connectable=0;fillColor=none;top=0;left=0;bottom=0;right=0;overflow=hidden;pointerEvents=1;strokeColor=inherit;fontSize=16;" vertex="1" parent="FMNDqlk5sN2ux17kd3Ov-11">
          <mxGeometry x="520" y="250" width="67" height="30" as="geometry">
            <mxRectangle width="67" height="30" as="alternateBounds" />
          </mxGeometry>
        </mxCell>
        <mxCell id="CPUSE-XaOg5NPm4l8oKs-17" value="" style="shape=mxgraph.networks2.icon;aspect=fixed;fillColor=#EDEDED;strokeColor=#000000;gradientColor=#5B6163;network2IconShadow=1;network2bgFillColor=none;network2Icon=mxgraph.networks2.lock;network2IconW=0.8;network2IconH=0.9999;" vertex="1" parent="FMNDqlk5sN2ux17kd3Ov-11">
          <mxGeometry x="430" y="630" width="40" height="49.995" as="geometry" />
        </mxCell>
        <mxCell id="CPUSE-XaOg5NPm4l8oKs-14" value="PtoC - Re Architecture" style="text;strokeColor=none;align=center;fillColor=none;html=1;verticalAlign=middle;whiteSpace=wrap;rounded=0;fontSize=20;" vertex="1" parent="1">
          <mxGeometry x="360" y="10" width="430" height="30" as="geometry" />
        </mxCell>
        <mxCell id="CPUSE-XaOg5NPm4l8oKs-19" value="" style="sketch=0;outlineConnect=0;fontColor=#232F3E;gradientColor=none;fillColor=#232F3D;strokeColor=none;dashed=0;verticalLabelPosition=bottom;verticalAlign=top;align=center;html=1;fontSize=12;fontStyle=0;aspect=fixed;pointerEvents=1;shape=mxgraph.aws4.users;" vertex="1" parent="1">
          <mxGeometry x="40" y="290" width="78" height="78" as="geometry" />
        </mxCell>
      </root>
    </mxGraphModel>
  </diagram>
</mxfile>
